<?xml version="1.0" standalone="no"?>
<!DOCTYPE svg PUBLIC "-//W3C//DTD SVG 1.1//EN" "http://www.w3.org/Graphics/SVG/1.1/DTD/svg11.dtd" >
<svg xmlns="http://www.w3.org/2000/svg">
<metadata>
This is a custom SVG webfont generated by Font Squirrel.
Copyright   : Copyright c 2009 by Jeremy Dooley All rights reserved
</metadata>
<defs>
<font id="ChennaiSlabMediumOblique" horiz-adv-x="1685" >
<font-face units-per-em="2048" ascent="1536" descent="-512" />
<missing-glyph horiz-adv-x="419" />
<glyph unicode=" "  horiz-adv-x="419" />
<glyph unicode="&#x09;" horiz-adv-x="419" />
<glyph unicode="&#xa0;" horiz-adv-x="419" />
<glyph unicode="!" horiz-adv-x="348" d="M123 106q8 47 48 79t85 32t72 -32q20 -24 20 -57q0 -10 -2 -22q-12 -49 -52 -79.5t-85 -30.5t-72 31q-18 21 -18 50q0 13 4 29zM197 395l219 1035q8 45 43 69.5t76 24.5q39 0 62 -25q17 -18 17 -48q0 -10 -2 -21l-219 -1035q-10 -45 -44 -69.5t-75 -24.5t-64 25 q-16 17 -16 44q0 11 3 25z" />
<glyph unicode="&#x22;" horiz-adv-x="702" d="M311 1030l66 303q10 47 47 74t80 27q45 0 73 -26q20 -19 20 -50q0 -12 -3 -25l-66 -303q-10 -47 -48 -71.5t-83 -24.5q-43 0 -68 25q-19 19 -20 50q0 10 2 21zM612 1030l66 303q10 47 46 74t79 27q45 0 73 -26q20 -19 20 -50q0 -12 -3 -25l-66 -303q-10 -47 -48 -71.5 t-83 -24.5q-43 0 -67 25q-18 19 -19 50q0 10 2 21z" />
<glyph unicode="#" horiz-adv-x="1480" d="M147 438q-1 8 -1 16q0 53 49 91q33 25 73 24h217l131 277h-200q-72 0 -78 65q-1 6 -1 13q0 55 50 94q31 25 72 24h254l149 316q37 76 111 76q61 -2 78 -54q3 -10 3 -21q0 -23 -14 -50l-127 -267h222l149 316q37 76 111 76q63 -2 78 -56q3 -9 2 -19q0 -23 -13 -50 l-127 -267h148q74 0 80 -65q1 -8 1 -16q0 -53 -51 -91q-33 -25 -73 -24h-199l-131 -277h207q72 0 80 -63q2 -10 1 -19q0 -51 -48 -88q-33 -25 -76 -24h-258l-144 -303q-34 -72 -106 -72h-4q-61 2 -78 53q-3 9 -2 20q0 23 12 50l119 252h-219l-143 -303q-34 -72 -107 -72h-4 q-61 2 -78 53q-3 9 -2 20q0 23 12 50l119 252h-166q-70 0 -78 63zM688 569h219l131 277h-219z" />
<glyph unicode="$" horiz-adv-x="1286" d="M106 289q14 63 63.5 100t102.5 37q55 0 90 -36q27 -28 27 -71q0 -13 -2 -26q-6 -31 -29 -53q76 -70 293 -70q164 0 281 52t141 169q4 18 4 34q0 38 -20 69q-29 43 -87.5 66.5t-133 48t-154.5 43t-152.5 51t-127 73.5t-77.5 113q-13 38 -13 82q0 38 10 82q70 326 479 381 l33 147q14 72 94 90q23 6 42 6q44 0 68 -32q15 -18 15 -43q0 -10 -2 -21l-31 -139q285 -8 379 -131q32 -47 32 -103q0 -23 -6 -47q-12 -61 -61 -96t-106.5 -35t-90.5 35q-24 25 -23 65q0 15 3 31q6 25 22 35q-84 59 -243 59q-336 0 -375 -192q-4 -15 -4 -29q0 -35 22 -62 q31 -38 88.5 -60.5t133 -45t155.5 -42t152.5 -55.5t126 -81t74.5 -122q11 -39 11 -84q0 -43 -10 -91q-78 -377 -589 -407l-35 -160q-16 -74 -98 -90q-21 -5 -39 -5q-45 0 -70 33q-13 17 -13 40q0 10 3 22l35 160q-262 20 -351 133q-42 51 -42 120q0 25 5 52z" />
<glyph unicode="%" horiz-adv-x="1732" d="M250 46q-2 9 -2 18q0 38 35 81l1239 1260q41 41 86 41q8 0 17 -1q54 -9 64 -55q2 -8 1 -17q0 -39 -35 -85l-1241 -1259q-39 -41 -82 -41q-9 0 -19 2q-53 10 -63 56zM276 1067q35 156 151 271.5t261 115.5q147 0 215 -116q45 -76 45 -170q0 -48 -12 -101 q-33 -156 -148.5 -272.5t-263.5 -116.5q-145 0 -213 117q-46 79 -45 175q-1 46 10 97zM463 1067q-7 -35 -7 -65q0 -47 18 -78q30 -51 91 -52q59 0 112.5 52.5t72.5 142.5q7 34 6 62q0 47 -19 79q-31 51 -90 52q-61 0 -113.5 -50.5t-70.5 -142.5zM997 365q35 156 151 272.5 t263 116.5q145 0 213 -117q45 -77 45 -171q0 -48 -12 -101q-33 -156 -149.5 -272t-262.5 -116q-147 0 -214 116q-45 78 -44 173q-1 48 10 99zM1184 365q-7 -35 -7 -65q0 -47 18 -79q30 -51 91 -51q59 0 112.5 52t71.5 143q8 36 9 66q0 45 -19 76q-31 52 -90 52 q-61 0 -113.5 -51t-72.5 -143z" />
<glyph unicode="&#x26;" horiz-adv-x="1540" d="M20 438q29 131 132.5 224.5t212.5 101.5q-92 29 -124 109q-18 46 -18 102q0 44 10 94q39 182 189.5 281.5t374.5 99.5q174 0 284.5 -58.5t112.5 -164.5q0 -100 -98 -150q-46 -24 -86 -23q-36 0 -66 19q-37 25 -43 78q-1 8 -1 16q0 28 18 54q-63 37 -164 36 q-125 0 -199 -53t-92 -135q-7 -32 -7 -59q0 -152 214 -152h528l35 168q8 43 43 67.5t76 24.5q39 0 62 -24q17 -18 18 -47q0 -10 -2 -21l-35 -168h157q47 0 67 -28q14 -19 14 -45q0 -11 -3 -23q-10 -41 -43 -70.5t-78 -29.5h-157l-41 -191q-15 -72 -15 -124q0 -61 21 -93 q39 -59 131 -59q47 0 68 -30q14 -20 13 -44q0 -12 -3 -25q-6 -39 -38 -67.5t-79 -28.5q-217 0 -282 113q-36 63 -36 167q0 83 23 191l41 191h-528q-322 0 -369 -226q-8 -37 -8 -68q0 -86 58 -134q79 -65 202 -64q184 0 274 53q-6 16 -2 41q10 66 59.5 104t108.5 42h11 q54 0 88 -40q25 -29 24 -68q0 -19 -6 -40q-78 -283 -602 -282q-238 0 -365 114q-93 84 -92 229q-1 53 12 115z" />
<glyph unicode="'" horiz-adv-x="385" d="M307 1030l66 303q10 47 47 74t78 27q45 0 72.5 -26t17.5 -75l-66 -303q-10 -47 -48 -71.5t-83 -24.5q-41 0 -66.5 25.5t-17.5 70.5z" />
<glyph unicode="(" horiz-adv-x="663" d="M157 118q-29 118 -29 238q0 122 30 244q53 258 207.5 487.5t388.5 380.5q43 21 74 22q14 0 25 -4q36 -13 36 -55q0 -49 -49 -92q-174 -145 -293 -339.5t-162 -399.5q-23 -111 -23 -219q0 -90 16 -179q36 -196 146 -341q22 -28 22 -56q0 -35 -34 -68q-33 -32 -67 -32 q-30 0 -62 25q-168 149 -226 388z" />
<glyph unicode=")" horiz-adv-x="663" d="M31 -206q10 36 45 67q174 147 293.5 340.5t162.5 398.5q23 109 24 216q0 92 -17 181q-37 195 -148 342q-19 26 -19 54q0 17 7 33q18 46 61 60q13 4 27 4q31 0 65 -22q168 -152 225 -381q29 -118 29 -243q0 -119 -26 -244q-55 -258 -210 -489.5t-388 -380.5 q-38 -23 -66 -23q-7 0 -13 1q-32 7 -47 29q-9 13 -9 31q0 12 4 26z" />
<glyph unicode="*" horiz-adv-x="714" d="M295 983q-3 10 -3 20q0 16 7 33q12 29 45 45l105 56l-82 55q-28 18 -29 45q0 23 22 53q31 40 65 40q19 0 40 -13l82 -55l24 108q8 35 33 54.5t53.5 19.5t47 -19.5t10.5 -54.5l-25 -110l107 55q37 18 60.5 10t31.5 -35q5 -11 4 -23q0 -14 -6 -29q-12 -28 -45 -46l-107 -55 l84 -54q27 -18 27 -45.5t-21 -52.5q-30 -40 -63 -40q-20 0 -41 13l-82 54l-25 -107q-8 -35 -32.5 -54.5t-53.5 -19.5q-31 0 -48 19.5t-9 54.5l25 107l-107 -54q-37 -16 -60.5 -8t-33.5 33z" />
<glyph unicode="+" horiz-adv-x="839" d="M113 446q8 39 41.5 69t81.5 30h200l43 200q10 47 45 74t74 27t64 -27q17 -19 17 -48q0 -12 -3 -26l-43 -200h201q47 0 67 -30q15 -21 15 -47q0 -10 -3 -22q-8 -41 -40.5 -69.5t-79.5 -28.5h-201l-43 -203q-10 -47 -46 -73.5t-75 -26.5t-62 27q-16 19 -17 47q0 12 3 26 l43 203h-200q-47 0 -69 30q-16 22 -16 48q1 9 3 20z" />
<glyph unicode="," horiz-adv-x="481" d="M10 -232q-5 12 -4 26q0 24 12 54l160 283q25 45 65 60q22 9 44 9q17 0 35 -5q37 -12 51 -47q6 -13 5 -28q0 -24 -13 -52l-162 -283q-23 -43 -64 -59q-23 -9 -46 -10q-17 0 -34 5q-37 15 -49 47z" />
<glyph unicode="-" horiz-adv-x="772" d="M209 463q-1 8 -1 16q0 53 48 90q31 25 72 25h364q72 0 80 -66q1 -8 1 -16q0 -53 -48 -90q-33 -25 -74 -25h-364q-72 0 -78 66z" />
<glyph unicode="." horiz-adv-x="483" d="M123 131q14 59 66.5 99t107.5 40t91 -40q26 -29 26 -67q0 -15 -4 -32q-12 -61 -63.5 -100t-109 -39t-92.5 39q-26 29 -25 70q0 14 3 30z" />
<glyph unicode="/" horiz-adv-x="1093" d="M70 -3q-5 14 -6 29q0 32 24 70l1075 1362q41 50 93 51q3 0 7 -1q56 -3 71 -47q4 -12 5 -26q0 -34 -28 -75l-1073 -1362q-39 -48 -90 -48h-7q-55 3 -71 47z" />
<glyph unicode="0" horiz-adv-x="1288" d="M203 711q68 319 266.5 526t479 207t390.5 -207q69 -128 69 -300q0 -105 -26 -226q-68 -317 -266 -524t-479 -207t-391 205q-69 128 -69 300q0 105 26 226zM440 711q-23 -108 -22 -198q0 -104 31 -183q57 -147 231 -147.5t294 147t169 381.5q24 110 24 201q0 102 -30 181 q-57 148 -231.5 148t-294.5 -148.5t-171 -381.5z" />
<glyph unicode="1" horiz-adv-x="712" d="M156 92q8 39 38.5 66.5t73.5 27.5h76l225 1063h-71q-45 0 -64 28q-13 19 -13 44q0 11 3 22q8 39 39 66t76 27h178q43 -2 64 -37q15 -24 15 -54q0 -14 -3 -30l-240 -1129h76q45 0 63 -27q13 -19 13 -44q0 -11 -3 -23q-8 -39 -37.5 -65.5t-74.5 -26.5h-361q-43 0 -62 28 q-14 19 -14 43q1 10 3 21z" />
<glyph unicode="2" horiz-adv-x="1206" d="M82 92q4 23 18.5 42.5t27.5 29.5t46 33l194 127q73 49 214 154.5t228 186t166 184t97 189.5q5 24 6 46q0 60 -42 106q-56 61 -179 61q-111 0 -205 -49q6 -16 2 -41q-12 -66 -60 -103.5t-108 -41.5q-6 0 -10 -1q-56 0 -91 40q-25 28 -25 64q0 20 8 42q35 123 199.5 208 t346.5 85q229 0 332 -117q75 -86 76 -201q0 -42 -10 -87q-86 -406 -860 -859h618q45 0 65 -28q14 -20 13 -46q0 -11 -2 -22q-8 -39 -39 -66.5t-76 -27.5h-876q-43 0 -63 28q-14 19 -14 43q1 10 3 21z" />
<glyph unicode="3" horiz-adv-x="1163" d="M74 262q8 63 64 108q52 40 106 40h10q57 -4 90 -42q22 -25 22 -63q0 -19 -6 -41q-12 -29 -18 -41q63 -53 248 -53q123 0 231.5 64.5t136.5 201.5q6 29 6 55q0 78 -58 115q-77 49 -224 49h-111q-47 0 -65 31q-13 21 -13 48q0 12 3 24q8 41 39.5 70.5t78.5 29.5h111 q250 0 295 211q5 22 5 41q0 55 -38 94q-51 53 -176 53q-94 0 -182 -36q3 -11 3 -23q0 -23 -14 -47q-49 -94 -147 -94h-5q-80 0 -110 61q-12 23 -11 49q0 28 13 60q47 106 182.5 164.5t307.5 58.5q225 0 333 -99q79 -73 79 -191q0 -43 -11 -91q-53 -250 -258 -305 q106 -8 170 -101q44 -64 44 -147q0 -37 -9 -78q-33 -154 -131 -260t-228 -152t-284 -46q-104 0 -186 11t-158 39.5t-112 88.5q-27 44 -26 102q0 20 3 41z" />
<glyph unicode="4" horiz-adv-x="1187" d="M150 444q8 39 45 91l636 837q40 58 100 59q13 0 27 -4q59 -12 68 -65q1 -7 1 -13q0 -31 -23 -63l-582 -751h422l71 337q10 45 47 71t82 26q43 0 71 -26q20 -19 20 -48q0 -11 -2 -23l-72 -337h129q45 0 65 -27q14 -18 14 -42q0 -12 -3 -26q-8 -39 -38 -65.5t-77 -26.5 h-129l-35 -162h72q45 0 63 -27q13 -19 13 -44q0 -11 -2 -23q-8 -39 -38 -65.5t-75 -26.5h-361q-43 0 -62 28q-14 19 -14 43q0 10 3 21q8 39 38.5 66.5t73.5 27.5h72l35 162h-582q-43 0 -62 29q-14 20 -14 45q1 10 3 22z" />
<glyph unicode="5" horiz-adv-x="1153" d="M76 272q14 66 66 102q49 34 107 34h7q59 -4 91 -43q19 -23 19 -55q0 -23 -10 -50q-6 -25 -18 -39q68 -39 235 -39q117 0 218.5 73t132.5 212q8 34 7 63q0 43 -16 77q-27 58 -73.5 89t-136 47.5t-158 19.5t-174.5 3q-76 0 -86 42q-2 10 -3 24q0 45 25 131l109 372 q14 57 59 78t125 21h633q47 0 67 -28q14 -19 13 -45q0 -11 -2 -22l-43 -196q-10 -47 -47 -75t-80 -28q-41 0 -66 28q-17 20 -17 49q0 12 3 26l20 96h-475l-82 -274q375 0 530 -140q119 -107 118 -259q0 -46 -11 -97q-49 -238 -227 -363.5t-412 -125.5q-78 0 -150.5 11 t-154.5 38.5t-122 90.5q-27 43 -27 98q0 26 6 54z" />
<glyph unicode="6" horiz-adv-x="1175" d="M153 220q-11 45 -11 100q0 58 12 126q72 336 316.5 575t635.5 411q32 14 59 14t48 -15q34 -24 34 -63q0 -10 -2 -20q-10 -53 -74 -86q-522 -252 -632 -488q127 121 315 121q190 0 300 -121q78 -86 78 -213q0 -53 -13 -112q-29 -131 -96.5 -226.5t-159 -146.5t-185.5 -75 t-196 -24q-100 0 -183.5 23t-153.5 76t-92 144zM383 444q-8 -37 -8 -69q0 -81 52 -128q73 -67 198 -67q127 0 234.5 66.5t135.5 197.5q7 33 7 61q0 84 -59 133q-79 65 -204 64.5t-227 -68t-129 -190.5z" />
<glyph unicode="7" horiz-adv-x="1040" d="M202 78q0 31 25 67l813 1098h-577l-23 -98q-14 -74 -88 -92q-20 -5 -37 -6q-42 0 -67 32q-13 18 -13 43q0 11 3 23l38 180q8 39 36 74t77 35h836q68 0 87 -23q14 -16 13 -43q0 -11 -2 -25q-8 -33 -57 -106l-867 -1171q-44 -59 -106 -60q-11 0 -23 2q-68 11 -68 70z" />
<glyph unicode="8" horiz-adv-x="1187" d="M139 420q29 129 140.5 229.5t218.5 112.5q-96 29 -137 115q-26 57 -26 120q0 32 7 66q39 180 192.5 285.5t366.5 105.5t323 -105q82 -79 82 -200q0 -41 -10 -86q-20 -98 -98 -185t-186 -116q100 -12 170 -113q50 -73 50 -160q0 -33 -7 -69q-43 -211 -215 -325.5 t-422 -114.5t-371 114q-89 85 -89 222q0 49 11 104zM377 416q-6 -29 -7 -55q0 -75 53 -124q71 -67 206 -67t234.5 66.5t123.5 179.5q5 27 6 51q0 76 -54 126q-71 67 -206 66.5t-234 -67.5t-122 -176zM569 1063q-5 -23 -5 -45q0 -57 36 -97q49 -56 176 -56.5t201 56t92 142.5 q4 20 4 38q0 59 -40 103q-52 57 -173 57.5t-198 -58t-93 -140.5z" />
<glyph unicode="9" horiz-adv-x="1175" d="M240 74q10 53 73 86q524 252 635 487q-131 -121 -317 -121q-190 0 -299 121q-78 87 -78 216q0 51 12 110q29 131 96.5 226t158.5 146.5t185.5 75t196.5 23.5q100 0 184 -23.5t153 -75t94 -146.5q13 -47 13 -101q0 -57 -14 -123q-37 -174 -123 -323.5t-213 -269.5 t-278.5 -214t-339.5 -178q-32 -14 -59 -14t-49 15q-34 24 -33 63q0 10 2 20zM492 977q-7 -33 -7 -62q0 -84 58 -132q78 -65 202 -64q127 0 229.5 67.5t129.5 190.5q7 35 7 66q0 83 -53 132q-73 67 -198 66q-127 0 -234 -66.5t-134 -197.5z" />
<glyph unicode=":" horiz-adv-x="483" d="M125 137q12 59 64.5 99t107.5 40t91 -39q27 -30 27 -71q0 -14 -3 -29q-12 -61 -64.5 -100t-110 -39t-91.5 39q-25 29 -24 69q0 15 3 31zM250 725q12 59 64.5 99t107.5 40t91 -40q27 -30 27 -70q0 -14 -3 -29q-12 -61 -64.5 -100t-110 -39t-91.5 39q-25 29 -24 69 q0 15 3 31z" />
<glyph unicode=";" horiz-adv-x="503" d="M23 -232q-5 12 -5 26q0 24 13 54l159 283q25 45 65 60q22 9 44 9q17 0 35 -5q37 -12 51 -47q6 -13 6 -28q0 -24 -14 -52l-162 -283q-23 -43 -63 -59q-23 -9 -47 -10q-17 0 -33 5q-37 15 -49 47zM270 725q12 59 64.5 99t108 40t91.5 -40q27 -30 26 -70q0 -14 -3 -29 q-12 -61 -64.5 -100t-109.5 -39t-91 39q-25 29 -25 69q0 15 3 31z" />
<glyph unicode="&#x3c;" horiz-adv-x="1015" d="M188 489q10 43 76 74l731 344q35 18 62 18q35 0 55 -30q16 -22 16 -46q0 -29 -22 -61q-20 -27 -57 -45l-580 -254l471 -253q42 -25 42 -67q0 -9 -2 -19q-11 -55 -60 -79q-23 -11 -47 -11q-27 0 -56 14l-584 344q-51 28 -45 71z" />
<glyph unicode="=" horiz-adv-x="1099" d="M125 262q-1 8 -1 16q0 53 48 91q31 25 72 24h667q74 0 82 -65q1 -6 1 -13q0 -55 -50 -94q-33 -25 -74 -24h-667q-72 -1 -78 65zM195 592q-1 6 -1 12q0 55 50 94q31 25 71 25h668q74 0 80 -66q1 -8 1 -15q0 -53 -50 -91q-33 -25 -74 -25h-668q-71 0 -77 66z" />
<glyph unicode="&#x3e;" horiz-adv-x="1050" d="M174 96q-16 22 -15 46q0 29 23 61q20 27 58 43l579 256l-471 254q-42 25 -42 67q0 9 2 19q11 55 61 79q23 11 47 11q27 0 55 -14l584 -347q52 -29 52 -61q0 -43 -83 -82l-731 -344q-35 -18 -62 -18q-35 0 -57 30z" />
<glyph unicode="?" horiz-adv-x="886" d="M256 131q14 59 66.5 99t107.5 40t91 -40q26 -29 26 -67q0 -15 -4 -32q-12 -61 -63.5 -100t-109 -39t-91.5 39q-26 29 -26 70q0 14 3 30zM285 1227q23 98 149.5 160.5t255.5 62.5q82 0 149.5 -18.5t125 -63.5t73.5 -121q8 -36 8 -79q0 -49 -10 -109q-16 -80 -66 -148.5 t-110 -116.5l-119 -94q-59 -45 -105 -97t-58 -109l-19 -82q-14 -74 -92 -93q-20 -5 -37 -5q-43 0 -65 34q-13 18 -13 42q0 10 2 22l19 82q23 104 90 188t136 130t132.5 110.5t77.5 136.5q8 34 8 62q0 56 -30 91q-44 53 -136 54q-84 0 -129 -35q8 -6 6 -21q-14 -57 -58 -86 q-39 -25 -81 -25q-6 0 -12 1q-51 4 -79 37q-18 22 -18 53q0 17 5 37z" />
<glyph unicode="@" horiz-adv-x="1746" d="M207 664q72 340 359.5 565t627.5 225q352 0 539 -180q132 -128 132 -344q0 -88 -22 -191q-37 -176 -184.5 -301t-337.5 -125q-152 0 -170 74q-121 -76 -250 -76q-147 0 -224 91q-55 65 -55 160q0 38 9 81q37 172 186.5 293t347.5 121q131 0 202 -61q54 -46 54 -118 q0 -23 -6 -49q-6 -29 -16 -59l-29 -82q-18 -51 -31 -92q-8 -22 -8 -39.5t8 -32.5q16 -29 56 -28q92 0 162.5 71.5t91.5 171.5q14 69 14 130q0 156 -95 259q-132 143 -413 144q-147 0 -282.5 -58.5t-229.5 -149.5t-157.5 -195.5t-84.5 -204.5q-16 -76 -15 -144 q0 -168 97 -288q137 -167 404 -166q229 0 428 77q28 8 49 9q32 0 52 -18q22 -19 22 -46q0 -15 -6 -33q-18 -49 -80 -73q-223 -98 -502 -99q-244 0 -407.5 109.5t-222.5 286.5q-33 99 -33 209q0 85 20 176zM811 643q-3 -16 -3 -31q0 -45 28 -75q37 -41 125 -41 q82 0 157.5 69.5t98.5 184.5q5 19 4 34q0 33 -20 56q-30 33 -111 32q-92 0 -175.5 -64.5t-103.5 -164.5z" />
<glyph unicode="A" d="M20 100q8 41 41 72t80 31h95l120 571q66 309 275 494.5t518 185.5t441 -185q88 -124 89 -303q0 -89 -22 -192l-121 -571h96q45 0 64 -29q13 -20 13 -46q0 -11 -3 -24q-8 -43 -40 -73.5t-77 -30.5h-407q-47 0 -68 30q-15 21 -15 48q0 11 3 22q8 41 42 72t81 31h94l70 336 h-867l-69 -336h98q45 0 63 -29q13 -20 13 -46q0 -11 -2 -24q-8 -43 -40 -73.5t-77 -30.5h-410q-47 0 -66 30q-14 21 -14 47q0 11 2 23zM565 733h867l8 41q16 76 16 141q0 128 -62 211q-93 125 -288 125t-340 -125t-193 -352z" />
<glyph unicode="B" horiz-adv-x="1529" d="M51 104q8 39 41 69t80 30h111l217 1028h-109q-47 0 -66 32q-14 22 -14 49q0 11 2 23q8 39 41 69t80 30h774q47 0 77 -1t74 -4.5t73.5 -10.5t65.5 -20.5t57.5 -32.5t42 -48t28.5 -65q7 -32 7 -75v-11q-1 -50 -13 -109q-23 -106 -96.5 -188.5t-169.5 -106.5 q119 -18 186 -98q46 -54 46 -141q0 -42 -11 -93q-25 -113 -79 -195.5t-117.5 -127t-152.5 -70t-160 -31.5t-161 -6h-776q-47 0 -67 31q-14 22 -13 49q0 11 2 24zM500 203h446q70 0 122 6t114.5 27.5t103.5 70.5t57 125q7 33 7 61q0 78 -56 110q-76 44 -254 44h-446zM637 850 h448q262 0 301 190q7 39 8 68q0 23 -6 40q-7 19 -16.5 33.5t-28 22.5t-36 14.5t-43 8.5t-47 3t-52.5 1h-448z" />
<glyph unicode="C" horiz-adv-x="1482" d="M211 713q72 332 338 531.5t592 199.5q166 0 301 -60.5t186 -183.5q20 -47 20 -84q0 -20 -6 -37q-16 -66 -70 -100q-49 -31 -100 -31h-12q-57 4 -90 43q-21 25 -21 60q0 20 7 43q10 27 24 47q-70 100 -280 100q-225 0 -411.5 -146.5t-237.5 -381.5q-14 -67 -14 -127 q0 -149 87 -255q123 -148 350 -149q236 0 449 144q33 20 64 19h4q33 -1 52 -21.5t27.5 -47t-5 -58.5t-46.5 -54q-256 -184 -590 -184q-324 0 -505 200q-132 145 -132 359q0 82 19 174z" />
<glyph unicode="D" horiz-adv-x="1605" d="M43 104q8 39 42 69t81 30h108l218 1028h-109q-47 0 -66 31q-13 21 -12 48q0 12 2 25q8 41 40 70t79 29h647q336 0 515 -183q127 -129 127 -344q0 -89 -21 -192q-76 -354 -331 -534.5t-593 -180.5h-647q-47 0 -68 31q-15 22 -14 50q0 11 2 23zM492 203h321q240 0 415 132 t228 380q16 75 16 140q0 147 -83 241q-121 135 -359 135h-321z" />
<glyph unicode="E" horiz-adv-x="1409" d="M51 104q8 39 41 69t80 30h111l217 1028h-109q-47 0 -66 32q-14 22 -14 49q0 11 2 23q8 39 41 69t80 30h1073q45 0 64 -31q13 -21 13 -48q0 -12 -3 -24l-49 -227q-10 -47 -46 -73q-33 -24 -71 -24q-3 0 -6 1q-41 0 -67 24q-18 18 -18 47q0 12 3 25l27 127h-637l-84 -400 h538q45 0 65 -30q14 -22 14 -49q0 -11 -3 -23q-8 -41 -39.5 -71.5t-79.5 -30.5h-538l-90 -424h665l82 170q36 74 111 74q2 0 4 -1q66 -2 82 -57q3 -9 2 -20q0 -23 -12 -50l-121 -247q-35 -72 -109 -72h-1075q-47 0 -67 31q-14 22 -13 49q0 11 2 24z" />
<glyph unicode="F" horiz-adv-x="1320" d="M51 104q8 39 41 69t80 30h100l217 1028h-98q-47 0 -66 32q-14 22 -14 49q0 11 2 23q8 39 41 69t80 30h1063q45 0 65 -31q14 -22 13 -48q0 -11 -2 -24l-47 -215q-8 -45 -45 -70.5t-80 -25.5q-41 0 -65 26q-17 19 -17 48q0 10 2 22l25 115h-641l-93 -438h475q47 0 66 -31 q13 -21 13 -48q0 -12 -3 -24q-8 -41 -39.5 -70.5t-79.5 -29.5h-475l-82 -387h95q45 0 63 -31q13 -21 13 -47q0 -12 -3 -25q-8 -41 -39.5 -70.5t-76.5 -29.5h-410q-47 0 -67 31q-14 22 -13 49q0 11 2 24z" />
<glyph unicode="G" horiz-adv-x="1519" d="M211 713q72 332 340 531.5t594 199.5q164 0 300 -59.5t187 -180.5q21 -46 21 -86q0 -19 -4 -37q-18 -66 -72 -99q-47 -30 -98 -30h-13q-57 4 -90 42q-22 25 -22 62q0 18 6 40q6 18 26 47q-66 98 -282 98q-227 0 -415.5 -146.5t-239.5 -381.5q-14 -64 -14 -122 q0 -151 92 -259q128 -150 355.5 -150t399.5 103l49 231h-239q-47 0 -68 31q-14 20 -14 45q0 13 4 26q8 41 40.5 71t80.5 30h364q43 0 64 -32q14 -21 13 -45q0 -12 -3 -26l-78 -372q-16 -72 -86 -109q-240 -156 -569 -155q-328 0 -513 201q-135 147 -135 361q0 81 19 171z " />
<glyph unicode="H" horiz-adv-x="1751" d="M55 104q8 39 41 69t80 30h94l217 1028h-98q-47 0 -65 31q-13 21 -13 48q0 12 2 25q8 41 40 70t79 29h410q45 0 64 -31q14 -22 14 -48q0 -11 -2 -24q-10 -41 -42 -70.5t-77 -29.5h-94l-82 -387h866l82 387h-96q-47 0 -66 31q-13 21 -13 48q0 12 3 25q8 41 39.5 70t79.5 29 h409q45 0 65 -31q14 -22 13 -48q0 -11 -2 -24q-10 -41 -42 -70.5t-77 -29.5h-96l-217 -1028h96q45 0 64 -31q13 -21 12 -47q0 -12 -2 -25q-8 -41 -40 -70.5t-77 -29.5h-410q-47 0 -66 31q-14 22 -14 49q0 12 3 24q8 39 40.5 69t79.5 30h97l92 438h-866l-93 -438h99 q45 0 62 -30q12 -20 12 -46q0 -12 -3 -27q-8 -41 -38.5 -70.5t-75.5 -29.5h-410q-47 0 -66 31q-14 22 -14 49q0 11 2 24z" />
<glyph unicode="I" horiz-adv-x="673" d="M57 104q8 39 41 69t80 30h94l217 1028h-96q-47 0 -66 32q-14 22 -14 49q0 11 2 23q8 39 41 69t80 30h408q45 0 64 -31q14 -22 14 -48q0 -11 -2 -24q-10 -41 -42 -70.5t-77 -29.5h-94l-218 -1028h99q45 0 63 -31q13 -21 13 -47q0 -12 -3 -25q-8 -41 -39.5 -70.5 t-76.5 -29.5h-410q-47 0 -66 31q-14 22 -14 49q0 11 2 24z" />
<glyph unicode="J" horiz-adv-x="999" d="M59 250q20 94 75.5 131t105.5 37q20 0 40.5 -4t43 -16.5t32.5 -42.5q5 -15 5 -33t-5 -39q-14 -63 -75 -88q35 -57 129 -58q111 0 173 78t97 244l164 772h-101q-47 0 -66 31q-14 22 -14 49q0 12 3 24q8 39 40.5 69t79.5 30h410q45 0 64 -30q13 -21 12 -48q0 -12 -2 -25 q-10 -41 -41 -70.5t-76 -29.5h-92l-164 -772q-53 -250 -182 -366t-340 -116q-172 0 -255 80q-65 63 -65 146q-1 23 4 47z" />
<glyph unicode="K" horiz-adv-x="1595" d="M55 104q8 39 41 69t80 30h94l217 1028h-98q-47 0 -65 31q-13 21 -13 48q0 12 2 25q8 41 40 70t79 29h410q45 0 64 -31q14 -22 14 -48q0 -11 -2 -24q-10 -41 -42 -70.5t-77 -29.5h-94l-127 -598l761 598h-24q-47 0 -66 31q-13 21 -12 48q0 12 2 25q8 41 40 70t79 29h409 q45 0 65 -31q14 -22 14 -48q0 -11 -3 -24q-10 -41 -42 -70.5t-77 -29.5h-108l-526 -410q68 -43 111.5 -124t64 -162.5t42 -158.5t63.5 -125t112 -48h51q47 0 65 -30q13 -21 13 -46q0 -12 -2 -25q-8 -41 -40 -71.5t-79 -30.5h-51q-111 0 -186.5 45t-110.5 113.5t-62.5 150.5 t-44 156t-54.5 129t-97 70l-361 -281l-37 -180h99q45 0 62 -30q12 -20 12 -46q0 -12 -3 -27q-8 -41 -38.5 -70.5t-75.5 -29.5h-410q-47 0 -66 31q-14 22 -14 49q0 11 2 24z" />
<glyph unicode="L" horiz-adv-x="1345" d="M55 104q8 39 41 69t80 30h94l217 1028h-98q-47 0 -65 31q-13 21 -13 48q0 12 2 25q8 41 40 70t79 29h410q45 0 64 -31q14 -22 14 -48q0 -11 -2 -24q-10 -41 -42 -70.5t-77 -29.5h-94l-218 -1028h643l84 174q35 72 107 72h8q66 -2 82 -56q3 -9 3 -19q0 -23 -13 -50 l-115 -236q-12 -37 -42 -62.5t-73 -25.5h-1038q-47 0 -66 31q-14 22 -14 49q0 11 2 24z" />
<glyph unicode="M" horiz-adv-x="2191" d="M33 104q8 39 40.5 69t80.5 30h86l143 676q68 319 226.5 447t396.5 128q131 0 221 -62.5t119 -195.5q162 258 446 258q88 0 156.5 -16.5t128 -56.5t87 -105.5t36.5 -163.5q2 -20 1 -41q0 -85 -26 -192l-143 -676h94q45 0 63 -30q13 -21 13 -47q0 -12 -2 -26 q-8 -41 -39 -70.5t-78 -29.5h-408q-47 0 -67 31q-15 22 -15 50q0 11 2 23q8 39 42 69t81 30h94l144 676q17 81 17 144q0 228 -224 228q-123 0 -222.5 -91t-140.5 -281l-143 -676h98q45 0 64 -31q13 -21 13 -47q0 -12 -3 -25q-8 -41 -40 -70.5t-77 -29.5h-409q-47 0 -67 31 q-14 22 -13 49q0 12 2 24q8 39 41 69t80 30h94l143 676q16 75 17 135q0 91 -38 146q-62 91 -185 91q-285 0 -363 -372l-143 -676h106q45 0 64 -31q13 -21 12 -47q0 -12 -2 -25q-8 -41 -40 -70.5t-77 -29.5h-409q-47 0 -67 31q-14 22 -14 49q1 11 3 24z" />
<glyph unicode="N" d="M20 104q8 39 41 69t80 30h95l120 571q66 309 275 494.5t518 185.5t441 -185q88 -124 89 -303q0 -89 -22 -192l-121 -571h96q45 0 64 -31q13 -21 12 -47q0 -12 -2 -25q-8 -41 -40 -70.5t-77 -29.5h-407q-47 0 -68 31q-15 22 -15 50q0 11 3 23q8 39 42 69t81 30h94l121 571 q16 76 16 141q0 128 -62 211q-93 125 -288 125t-340 -125t-193 -352l-120 -571h98q45 0 63 -31q13 -21 13 -47q0 -12 -2 -25q-8 -41 -40 -70.5t-77 -29.5h-410q-47 0 -66 31q-14 22 -14 49q0 11 2 24z" />
<glyph unicode="O" horiz-adv-x="1679" d="M211 711q66 307 332 520t600 213q336 0 513 -213q129 -155 129 -361q0 -76 -18 -159q-66 -307 -333 -519t-603 -212q-334 0 -509 211q-128 154 -129 360q0 77 18 160zM449 711q-13 -62 -14 -118q0 -146 88 -257q122 -154 351.5 -154t418 155t235.5 374q13 61 13 117 q0 147 -89 258q-123 155 -352.5 155t-416.5 -154.5t-234 -375.5z" />
<glyph unicode="P" horiz-adv-x="1423" d="M55 104q8 39 41 69t80 30h94l217 1028h-98q-47 0 -65 31q-13 21 -13 48q0 12 2 25q8 41 40 70t79 29h725q92 0 167 -13.5t142.5 -44t105.5 -83t55 -129.5q7 -32 7 -68q0 -52 -14 -113q-98 -453 -653 -453h-410l-70 -327h99q45 0 62 -30q12 -20 12 -46q0 -12 -3 -27 q-8 -41 -38.5 -70.5t-75.5 -29.5h-410q-47 0 -66 31q-14 22 -14 49q0 11 2 24zM600 733h410q315 0 370 250q8 39 8 71q0 82 -52 122q-73 55 -222 55h-409z" />
<glyph unicode="Q" horiz-adv-x="1683" d="M207 711q66 307 332 520t600 213q336 0 513 -213q129 -155 129 -361q0 -76 -18 -159q-45 -217 -199.5 -394.5t-371.5 -265.5q25 -23 63.5 -70t64.5 -72.5t77 -47t116 -21.5h37q45 0 65 -30q13 -20 13 -45q0 -13 -4 -27q-8 -41 -40 -72t-77 -31h-37q-117 0 -198.5 36 t-127.5 86t-86 100.5t-98.5 86.5t-140.5 36q-330 2 -504 214q-126 154 -126 357q0 77 18 160zM444 711q-13 -62 -13 -118q0 -146 88 -257q122 -154 351.5 -154t418 155t235.5 374q13 61 13 117q0 147 -89 258q-123 155 -352.5 155t-417 -154.5t-234.5 -375.5z" />
<glyph unicode="R" horiz-adv-x="1509" d="M55 104q8 39 41 69t80 30h94l217 1028h-98q-47 0 -65 31q-13 21 -13 48q0 12 2 25q8 41 40 70t79 29h715q115 0 205 -22.5t161.5 -77t93.5 -142.5q11 -43 10 -96q0 -56 -11 -123q-66 -311 -363 -416q31 -43 46.5 -111.5t20.5 -117.5t33.5 -87t83.5 -38h37q47 0 66 -30 q13 -21 13 -46q0 -12 -3 -25q-8 -41 -40 -71.5t-79 -30.5h-37q-109 0 -173 38t-83.5 95t-33 123t-19.5 123t-44 95t-109 38h-369l-66 -309h99q45 0 62 -30q12 -20 12 -46q0 -12 -3 -27q-8 -41 -38.5 -70.5t-75.5 -29.5h-410q-47 0 -66 31q-14 22 -14 49q0 11 2 24zM596 715 h399q315 0 371 258q9 41 9 75q0 81 -51 123q-73 59 -220 60h-399z" />
<glyph unicode="S" horiz-adv-x="1286" d="M106 289q14 63 63.5 100t102.5 37q54 0 90 -36q27 -28 27 -71q0 -13 -2 -26q-6 -31 -29 -53q76 -70 293 -70q164 0 281 52t141 169q4 18 4 34q0 38 -20 69q-29 43 -87.5 66.5t-133 48t-154.5 43t-152.5 51t-127 73.5t-77.5 113q-13 38 -13 82q0 38 10 82q18 88 61 156.5 t104.5 109.5t123 67.5t134 38t119.5 15.5t101 4q332 0 434 -133q32 -47 32 -103q0 -23 -6 -47q-12 -61 -61 -96t-106.5 -35t-90.5 35q-24 25 -23 65q0 15 3 31q6 25 22 35q-84 59 -243 59q-336 0 -375 -192q-4 -15 -4 -29q0 -35 22 -62q31 -38 88.5 -60.5t133 -45t155.5 -42 t152.5 -55.5t126 -81t74.5 -122q11 -39 11 -84q0 -43 -10 -91q-86 -412 -690 -411q-358 0 -467 137q-42 51 -42 120q0 25 5 52z" />
<glyph unicode="T" horiz-adv-x="1398" d="M262 1108l49 225q8 41 40 72t79 31h1149q47 0 66 -31q13 -21 12 -48q0 -12 -2 -24l-49 -225q-8 -45 -45 -70.5t-78 -25.5q-43 2 -68 26q-18 18 -18 49q0 10 2 21l26 125h-358l-217 -1030h100q45 0 64 -31q13 -21 13 -47q0 -12 -3 -25q-8 -41 -40 -70.5t-77 -29.5h-409 q-47 0 -67 31q-14 22 -14 49q0 12 3 24q8 39 41 69t80 30h94l217 1030h-358l-27 -125q-8 -45 -44 -70.5t-79 -25.5q-41 2 -65 26q-18 18 -19 49q0 10 2 21z" />
<glyph unicode="U" d="M283 1335q8 41 39.5 70t78.5 29h410q45 0 65 -31q14 -22 13 -48q0 -11 -2 -24q-10 -41 -42 -70.5t-77 -29.5h-98l-121 -572q-16 -77 -16 -141q0 -127 61 -210q92 -124 286.5 -124t341 124t193.5 351l121 572h-94q-47 0 -67 31q-14 22 -13 49q0 12 2 24q8 41 41 70t80 29 h407q45 0 65 -31q14 -22 14 -48q0 -11 -3 -24q-10 -41 -42 -70.5t-77 -29.5h-96l-121 -569q-66 -311 -275.5 -495.5t-519 -184.5t-440.5 184q-87 123 -87 302q0 90 22 194l121 569h-95q-47 0 -65 31q-13 21 -13 48q0 12 3 25z" />
<glyph unicode="V" horiz-adv-x="1581" d="M254 1335q8 39 41 69t80 30h407q45 0 65 -31q14 -22 14 -48q0 -11 -3 -24q-10 -41 -42 -70.5t-77 -29.5h-75l190 -912l575 912h-63q-47 0 -67 31q-14 22 -13 49q0 12 2 24q8 41 41 70t80 29h408q45 0 64 -31q14 -22 14 -48q0 -11 -3 -24q-10 -41 -41.5 -70.5t-76.5 -29.5 h-101l-770 -1165q-47 -76 -121 -76q-68 0 -86 76l-274 1165h-90q-47 0 -67 32q-14 22 -13 49q0 11 2 23z" />
<glyph unicode="W" horiz-adv-x="2117" d="M250 1329q10 43 42 74t79 31h409q45 0 65 -30q14 -21 14 -47q0 -11 -3 -24q-8 -41 -41 -71.5t-78 -30.5h-106l-144 -676q-17 -80 -16 -144q0 -229 221 -229q123 0 223.5 91.5t141.5 281.5l143 676h-94q-47 0 -67 30q-14 21 -13 46q0 11 2 22q10 43 42 74t79 31h410 q45 0 64 -30q14 -21 14 -47q0 -11 -3 -24q-8 -41 -40.5 -71.5t-77.5 -30.5h-99l-143 -676q-16 -76 -17 -136q0 -90 37 -146q61 -91 185 -91q285 0 364 373l144 676h-95q-47 0 -67 30q-15 21 -15 47q0 10 2 21q10 43 43 74t80 31h408q47 0 65 -30q13 -21 13 -47q0 -12 -2 -24 q-8 -41 -40 -71.5t-79 -30.5h-94l-144 -676q-68 -317 -229.5 -446t-396.5 -129q-285 0 -338 258q-162 -258 -449 -258q-238 0 -342 128q-63 78 -63 226q0 96 26 221l144 676h-86q-47 0 -67 30q-14 21 -14 46q1 10 3 22z" />
<glyph unicode="X" horiz-adv-x="1662" d="M20 104q8 39 41 69t80 30h95q113 424 466 526q-237 85 -236 376q0 59 9 126h-96q-47 0 -66 31q-13 21 -12 48q0 12 2 25q8 41 40 70t79 29h409q45 0 65 -31q14 -22 14 -48q0 -11 -3 -24q-10 -41 -41.5 -70.5t-77.5 -29.5h-96q-5 -42 -5 -80q0 -137 65 -217 q82 -102 256 -102.5t299 102t182 297.5h-90q-47 0 -67 32q-14 22 -13 49q0 11 2 23q8 39 41 69t80 30h407q45 0 65 -31q14 -22 14 -48q0 -11 -3 -24q-10 -41 -42 -70.5t-77 -29.5h-98q-113 -401 -442 -502q258 -84 258 -383q0 -66 -13 -143h99q45 0 63 -31q13 -21 13 -47 q0 -12 -3 -25q-8 -41 -39.5 -70.5t-76.5 -29.5h-187q-4 0 -12 -1t-10 -1t-8.5 1t-10.5 1h-180q-47 0 -67 31q-15 22 -15 50q0 11 2 23q8 39 42 69t81 30h92q7 50 7 94q0 137 -67 220q-89 110 -269 110q-182 0 -318.5 -110.5t-191.5 -313.5h96q45 0 63 -31q13 -21 13 -47 q0 -12 -2 -25q-8 -41 -40 -70.5t-77 -29.5h-186q-4 0 -12.5 -1t-10.5 -1q-4 0 -10 1t-8 1h-183q-47 0 -66 31q-14 22 -14 49q0 11 2 24z" />
<glyph unicode="Y" horiz-adv-x="1648" d="M264 1335q8 41 40 70t79 29h410q45 0 64 -31q14 -22 14 -48q0 -11 -3 -24q-10 -41 -41.5 -70.5t-76.5 -29.5h-101l-8 -45q-17 -79 -17 -145q0 -125 61 -206q93 -124 287.5 -124t341 123.5t195.5 351.5l9 45h-97q-47 0 -65 31q-13 21 -13 48q0 12 3 25q8 41 39.5 70 t78.5 29h410q45 0 64 -31q14 -22 14 -48q0 -11 -2 -24q-10 -41 -42 -70.5t-77 -29.5h-98l-9 -43q-59 -281 -239 -462t-445 -212l-65 -311h96q45 0 64 -31q13 -21 12 -47q0 -12 -2 -25q-8 -41 -40 -70.5t-77 -29.5h-407q-47 0 -68 31q-15 22 -15 50q0 11 3 23q8 39 41.5 69 t81.5 30h94l65 311q-254 31 -355 212q-64 114 -64 268q0 90 22 194l8 43h-94q-47 0 -66 31q-13 21 -12 48q-1 12 2 25z" />
<glyph unicode="Z" horiz-adv-x="1345" d="M56 77q0 73 57 122l1118 1038h-658l-28 -131q-14 -72 -92 -92q-20 -5 -37 -5q-43 0 -66 33q-13 17 -13 41q0 11 3 23l51 235q41 92 117 93h954q63 0 83 -35q10 -18 10 -39q0 -19 -9 -41q-18 -45 -57 -82l-1118 -1038h721l96 194q37 76 115 76q68 -2 79 -55q6 -27 -8 -62 l-123 -266q-39 -86 -114 -86h-1002q-79 0 -79 77z" />
<glyph unicode="[" horiz-adv-x="655" d="M127 -133l309 1458q10 43 48 76t83 33h264q76 0 84 -68q1 -8 1 -17q0 -57 -50 -98q-33 -27 -78 -26h-163l-269 -1256h154q72 0 80 -65q2 -11 1 -21q0 -56 -48 -94q-33 -25 -76 -25h-254q-45 0 -71 30q-18 21 -18 49q0 12 3 24z" />
<glyph unicode="\" horiz-adv-x="915" d="M317 1450q-2 10 -2 21q0 32 20 62q26 40 71 58q22 10 44 10q18 0 35 -7q39 -15 50 -56l372 -1528q3 -11 3 -22q0 -30 -20 -59q-28 -40 -71 -58q-23 -10 -46 -10q-18 0 -35 6q-40 14 -48 57z" />
<glyph unicode="]" horiz-adv-x="655" d="M6 -170q-1 8 -1 17q0 57 50 98q33 25 72 24h154l268 1258h-162q-76 0 -84 67q-1 7 0 13q0 59 51 102q35 27 78 27h264q45 0 70 -33q17 -23 17 -51q0 -12 -3 -25l-309 -1460q-10 -43 -48 -73t-83 -30h-256q-72 0 -78 66z" />
<glyph unicode="^" horiz-adv-x="1159" d="M311 713l488 657q31 43 58 58q14 8 27 8q12 0 23 -6q23 -14 35 -60l205 -657q7 -20 7 -38q0 -48 -48 -85q-35 -25 -65 -26q-24 0 -46 16q-20 16 -30 45l-142 524l-366 -524q-43 -58 -94 -58q-14 0 -29 4q-51 14 -51 68q-1 37 28 74z" />
<glyph unicode="_" horiz-adv-x="716" d="M-37 -131q-1 8 -1 16q0 55 50 92q31 23 70 23h551q72 0 80 -66q1 -6 0 -12q0 -55 -49 -94q-33 -25 -74 -25h-551q-70 0 -76 66z" />
<glyph unicode="`" horiz-adv-x="591" d="M390 1289q28 52 78 65q12 3 23 3q37 0 68 -32l127 -158q17 -23 18 -48q0 -22 -14 -47q-29 -52 -79 -64q-12 -3 -23 -3q-36 0 -66 29l-125 160q-19 24 -19 51q0 21 12 44z" />
<glyph unicode="a" horiz-adv-x="1196" d="M145 432q39 186 187.5 318.5t345.5 132.5q203 0 285 -152l8 35q10 47 45 72.5t78 25.5t69 -25q19 -18 19 -49q0 -11 -2 -24l-123 -580h73q43 0 62 -26q13 -18 13 -43q0 -11 -3 -23q-8 -39 -37.5 -66.5t-72.5 -27.5h-185q-41 0 -64 25q-17 18 -18 47q0 10 2 22l9 35 q-145 -150 -351 -149q-197 0 -287 132q-64 93 -64 212q-1 52 11 108zM362 432q-8 -37 -8 -70q0 -75 42 -128q60 -77 173 -76q115 0 209 75.5t119 198.5q8 37 8 69q0 76 -44 129q-62 75 -177 75q-111 0 -203 -77t-119 -196z" />
<glyph unicode="b" horiz-adv-x="1206" d="M41 92q8 39 39 66.5t76 27.5h73l238 1117h-74q-45 0 -63 27q-14 21 -14 48q0 9 1 19q8 39 39 65.5t76 26.5h184q39 0 64 -26q17 -18 17 -45q0 -11 -3 -23l-139 -660q143 147 344 148q197 0 289 -132q64 -91 64 -210q0 -53 -13 -111q-39 -188 -186.5 -319t-346 -131 t-282.5 145l-6 -31q-8 -43 -43 -68.5t-74 -25.5h-184q-45 0 -65 27q-14 19 -13 43q0 10 2 22zM487 418q-5 -29 -5 -56q0 -81 47 -135q62 -72 173 -71q113 0 204 76.5t118 197.5q8 37 8 70q0 75 -42 128q-60 77 -171 77q-115 0 -209 -76t-121 -199z" />
<glyph unicode="c" horiz-adv-x="970" d="M145 426q41 193 204 325t376 132q137 0 231 -65q82 -56 82 -134q0 -12 -2 -25q-8 -55 -51 -88.5t-94 -38.5h-6q-53 0 -80 38q-16 22 -16 49q0 21 10 45q-29 35 -113 34q-106 0 -202.5 -76.5t-121.5 -195.5q-7 -30 -6 -58q0 -75 48 -130q67 -76 174 -76q135 0 227 65 q33 18 55 19h5q35 0 57 -27q17 -21 16 -46q0 -9 -2 -19q-2 -27 -29 -54q-121 -123 -370 -123q-213 0 -323 131q-80 95 -80 220q0 47 11 98z" />
<glyph unicode="d" horiz-adv-x="1208" d="M145 430q39 186 187.5 318.5t345.5 132.5q203 0 285 -150l141 664q10 43 45 68.5t74 25.5h184q43 0 62 -28q14 -19 14 -43q0 -10 -2 -21q-6 -37 -38 -65.5t-75 -28.5h-74l-237 -1117h73q43 0 63 -27q14 -19 14 -45q0 -11 -3 -22q-8 -39 -38.5 -65.5t-73.5 -26.5h-185 q-39 0 -63 26q-18 19 -19 48q0 10 2 20l9 35q-145 -150 -351 -149q-197 0 -287 131q-64 92 -64 211q-1 52 11 108zM360 424q-7 -35 -7 -66q0 -75 42 -130q59 -77 170 -76q115 0 210 74.5t120 197.5q8 38 8 71q0 77 -43 129q-61 75 -176 74q-113 0 -205 -76.5t-119 -197.5z " />
<glyph unicode="e" horiz-adv-x="989" d="M145 426q43 203 207 330t365 127q188 0 282 -89q73 -69 74 -157q0 -25 -6 -51q-27 -123 -143.5 -196t-284.5 -73q-156 0 -283 64q-4 -94 67 -157.5t193 -63.5q59 0 106.5 9t89.5 25.5t46 18.5q16 3 30 3q30 0 47 -15q22 -19 22 -51q0 -5 -1 -11q-6 -53 -63 -88 q-55 -33 -154 -55q-98 -20 -194 -21q-215 0 -329 125q-82 91 -82 222q-1 49 11 104zM389 502q90 -45 184 -56q28 -3 54 -3q75 0 135 27q80 36 100 95q6 16 6 31q0 36 -35 66q-50 41 -155 40q-86 0 -167 -56t-122 -144z" />
<glyph unicode="f" horiz-adv-x="692" d="M45 92q8 39 39 66.5t76 27.5h76l104 492h-70q-45 0 -64 28q-14 19 -14 44q0 11 3 22q8 39 37.5 65.5t76.5 26.5h70l51 240q72 340 397 340q41 0 82 -9.5t85 -31t66 -68.5q13 -28 13 -62q0 -23 -6 -48q-12 -53 -56 -85t-93.5 -32t-78.5 31q-21 22 -21 55q0 14 3 31 q6 33 29 51q-25 10 -53 10q-119 0 -158 -184l-51 -238h178q45 0 65 -27q15 -20 15 -45q0 -10 -2 -20q-8 -39 -40 -66.5t-77 -27.5h-178l-105 -492h115q45 0 64 -27q13 -19 12 -44q0 -11 -2 -23q-8 -39 -38 -65.5t-75 -26.5h-399q-45 0 -65 27q-14 19 -13 43q0 10 2 22z" />
<glyph unicode="g" horiz-adv-x="1193" d="M25 -188q14 63 58 101t97 38q61 0 82 -47q9 -20 9 -42q0 -28 -15 -59q41 -61 186 -61q311 0 383 326l13 59q-147 -147 -351 -147q-197 0 -287 132q-64 93 -64 212q0 51 11 108q39 186 187.5 318.5t345.5 132.5q199 0 287 -150l8 41q18 90 104 90h199q43 0 62 -26 q14 -19 14 -43q0 -10 -2 -21q-8 -39 -39 -67.5t-74 -28.5h-76l-127 -600q-25 -115 -74 -203t-110 -142.5t-138 -89t-151 -48t-155 -13.5q-186 0 -295 62q-91 52 -92 135q1 16 4 33zM365 432q-8 -37 -9 -69q0 -75 43 -129q61 -77 172 -76q115 0 209.5 75.5t118.5 198.5 q8 37 8 69q0 76 -44 129q-62 75 -175 75t-204.5 -77t-118.5 -196z" />
<glyph unicode="h" horiz-adv-x="1241" d="M43 92q8 39 39 66.5t76 27.5h75l236 1106h-76q-43 0 -61 29q-13 20 -13 45q0 11 3 23q6 37 36.5 63.5t73.5 26.5h184q41 0 66 -25q17 -17 17 -45q0 -11 -3 -25l-145 -688q29 76 116 131.5t193 55.5q184 0 264 -103q49 -63 50 -177q0 -70 -19 -159l-55 -258h76 q43 0 62 -27q14 -19 14 -45q0 -11 -3 -22q-8 -39 -38.5 -65.5t-73.5 -26.5h-179q-43 0 -69 26q-19 18 -19 48q0 11 2 24l70 334q9 45 9 82q0 164 -187 164q-90 0 -161 -55.5t-101 -159.5l-60 -277h76q43 0 62 -27q13 -19 12 -44q0 -11 -2 -23q-8 -39 -38 -65.5t-73 -26.5 h-360q-45 0 -65 27q-14 19 -13 43q0 10 2 22z" />
<glyph unicode="i" horiz-adv-x="587" d="M45 92q8 39 39 66.5t76 27.5h76l104 492h-76q-45 0 -63 29q-13 20 -13 44q0 11 2 23q8 37 38 63.5t75 26.5h178q43 0 70 -25q19 -18 19 -49q0 -11 -3 -24l-123 -580h76q43 0 63 -27q14 -19 13 -45q0 -11 -2 -22q-8 -39 -39 -65.5t-74 -26.5h-360q-45 0 -65 27 q-14 19 -13 43q0 10 2 22zM408 1087q12 51 55 85t92 34q47 0 77 -34q21 -24 21 -56q0 -13 -4 -29q-10 -53 -53 -85.5t-92 -32.5t-78 32q-21 24 -21 60q0 12 3 26z" />
<glyph unicode="j" horiz-adv-x="483" d="M-283 -258q12 57 54.5 90t91.5 33q51 0 81 -32q21 -22 21 -59q0 -15 -4 -32q-6 -29 -29 -51q27 -10 54 -10q119 0 161 210l168 787h-75q-43 0 -63 29q-14 20 -14 45q0 11 3 22q8 37 39 63.5t74 26.5h180q43 0 68 -25q18 -18 19 -47q0 -11 -3 -24l-187 -879 q-80 -367 -391 -366q-123 0 -196 55q-56 42 -57 116q0 23 5 48zM381 1087q12 51 56 85t93 34q47 0 76 -34q20 -24 20 -55q0 -14 -3 -30q-10 -53 -53.5 -85.5t-90.5 -32.5q-51 0 -80 32q-21 24 -21 60q0 12 3 26z" />
<glyph unicode="k" horiz-adv-x="1091" d="M43 92q8 39 39 66.5t76 27.5h78l235 1106h-74q-45 0 -63 29q-13 20 -13 45q0 11 3 23q6 37 36.5 63.5t75.5 26.5h182q41 0 66 -25q17 -17 17 -45q0 -11 -3 -25l-190 -895l424 340q45 35 106 35h119q45 0 65 -27q15 -21 14 -48q0 -8 -1 -17q-8 -39 -39 -66.5t-78 -27.5 h-92l-174 -129q45 -35 67.5 -100.5t25.5 -121t28.5 -98.5t79.5 -43q35 0 49 -27q9 -18 9 -39q0 -12 -3 -26q-8 -39 -38 -66.5t-79 -27.5q-90 0 -142 38t-70.5 94t-28 114.5t-25.5 106.5t-49 63l-217 -162l-35 -164q-8 -39 -38 -64.5t-71 -25.5h-196q-45 0 -65 27 q-14 19 -13 43q0 10 2 22z" />
<glyph unicode="l" horiz-adv-x="589" d="M47 92q8 39 40 66.5t75 27.5h71l236 1106h-74q-45 0 -63 29q-13 20 -13 45q0 11 3 23q6 37 36.5 63.5t75.5 26.5h184q41 0 65 -25q16 -17 16 -44q0 -12 -3 -26l-254 -1198h80q43 0 63 -27q14 -19 13 -45q0 -11 -2 -22q-8 -39 -39 -65.5t-74 -26.5h-360q-43 0 -64 28 q-15 20 -14 44q0 9 2 20z" />
<glyph unicode="m" horiz-adv-x="1708" d="M41 92q8 39 39 66.5t76 27.5h73l105 492h-74q-45 0 -62 27q-13 20 -13 46q0 9 1 19q8 39 39 66.5t74 27.5h184q41 0 65 -24q16 -17 16 -45q0 -12 -3 -25l-6 -35q117 147 285 148q207 0 250 -154q53 76 138 115t175 39q141 0 207 -84q38 -49 38 -144q0 -68 -20 -161 l-65 -308h73q45 0 64 -26q13 -18 13 -43q0 -11 -3 -23q-8 -39 -39 -66.5t-74 -27.5h-186q-39 0 -62 24q-17 17 -18 44q0 9 2 20l82 393q9 42 9 76q0 55 -25 85q-41 48 -115 48q-72 0 -135.5 -49t-87.5 -160l-62 -295h74q45 0 64 -26q13 -18 12 -43q0 -11 -2 -23 q-8 -39 -39 -66.5t-74 -27.5h-182q-41 0 -66 25q-18 18 -18 48q0 10 2 21l10 4h-8l80 383q9 42 9 76q0 55 -25 85q-41 48 -115 48q-70 0 -131.5 -46t-85.5 -150l-66 -308h74q45 0 63 -26q13 -18 13 -43q0 -11 -2 -23q-8 -39 -39 -66.5t-74 -27.5h-356q-45 0 -65 27 q-14 19 -13 43q0 10 2 22z" />
<glyph unicode="n" horiz-adv-x="1243" d="M41 92q8 39 39 66.5t76 27.5h77l105 492h-78q-43 0 -61 29q-13 20 -13 44q0 11 2 23q8 37 38 63.5t73 26.5h182q43 0 69 -25q18 -18 18 -48q0 -12 -3 -25l-18 -82q23 80 114 139.5t201 59.5q186 0 265 -103q48 -62 48 -174q0 -73 -20 -166l-53 -254h74q45 0 63 -27 q13 -19 13 -44q0 -11 -3 -23q-8 -39 -37.5 -65.5t-74.5 -26.5h-179q-43 0 -68 27q-18 19 -18 47q0 11 2 24l70 334q9 45 9 82q0 164 -187 164q-94 0 -168 -61.5t-102 -176.5l-54 -254h74q43 0 62 -27q13 -19 12 -44q0 -11 -2 -23q-8 -39 -38 -65.5t-73 -26.5h-360 q-45 0 -65 27q-14 19 -13 43q0 10 2 22z" />
<glyph unicode="o" horiz-adv-x="1077" d="M145 430q43 195 203 324t377 129q215 0 323 -129q77 -92 76 -218q0 -50 -12 -106q-41 -193 -202.5 -321.5t-377 -128.5t-321.5 128q-77 92 -77 219q0 49 11 103zM362 430q-7 -35 -7 -67q0 -74 40 -130q57 -80 174 -79.5t209 80t117 196.5q7 35 7 67q0 74 -40 130 q-57 80 -174 80t-209 -80t-117 -197z" />
<glyph unicode="p" horiz-adv-x="1204" d="M-51 -336q8 39 37.5 66.5t72.5 27.5h76l197 920h-78q-45 0 -64 29q-13 20 -12 44q0 11 2 23q8 37 38 63.5t75 26.5h156q4 0 12 1t12 1q43 0 70 -25q20 -20 20 -50q0 -9 -2 -19l-8 -39q143 150 346 150q197 0 288 -132q64 -93 64 -213q0 -51 -12 -108 q-39 -188 -186.5 -319t-345.5 -131q-203 0 -283 147l-80 -369h74q45 0 64 -27q14 -19 14 -45q0 -11 -2 -22q-8 -39 -39 -65.5t-76 -26.5h-359q-43 0 -61 27q-13 18 -13 42q0 11 3 23zM489 430q-7 -35 -7 -66q0 -78 44 -133q61 -76 176 -75q111 0 202 76.5t118 197.5 q8 37 8 71q0 74 -41 127q-59 77 -171.5 77t-207 -76t-121.5 -199z" />
<glyph unicode="q" horiz-adv-x="1202" d="M145 430q39 188 187.5 320.5t345.5 132.5q201 0 285 -150l6 37q10 45 46 69.5t77 24.5h180q45 0 64 -26q14 -19 14 -43q0 -10 -2 -21q-8 -39 -39 -67.5t-76 -28.5h-74l-196 -920h75q43 0 64 -27q15 -20 14 -45q0 -10 -2 -20q-8 -39 -40 -66.5t-75 -27.5h-360 q-43 0 -62 28q-14 19 -14 44q0 11 2 22q8 39 39 65.5t74 26.5h76l80 369q-143 -147 -349 -147q-197 0 -287 131q-64 92 -64 211q-1 52 11 108zM362 430q-8 -36 -8 -69q0 -74 42 -128q60 -78 171 -77q115 0 210 75.5t120 198.5l2 12q5 29 5 56q0 79 -46 134q-61 73 -172 73 q-113 0 -205 -77t-119 -198z" />
<glyph unicode="r" horiz-adv-x="886" d="M45 92q8 39 40 66.5t75 27.5h76l104 492h-76q-43 0 -62 29q-14 20 -14 45q0 11 2 22q8 37 39 63.5t74 26.5h178q43 0 70 -25q19 -18 19 -49q0 -11 -3 -24l-10 -49q57 76 145 124q75 41 166 41q15 0 31 -1q70 -8 105 -51q22 -26 21 -59q0 -20 -7 -42q-14 -37 -29 -53 q-41 -51 -101 -59q-10 -1 -20 -1q-47 0 -76 30q-22 22 -22 52q0 19 8 41q-209 -51 -286 -325l-48 -228h76q43 0 63 -27q14 -19 13 -45q0 -11 -2 -22q-8 -39 -39 -65.5t-74 -26.5h-360q-43 0 -64 28q-15 20 -14 44q0 9 2 20z" />
<glyph unicode="s" horiz-adv-x="937" d="M90 203q10 57 54 95q42 36 103 36h7q61 -4 79 -61q5 -16 5 -32q0 -39 -31 -75q0 -4 2 -4q76 -18 168 -18.5t155.5 27.5t76.5 81q2 8 1 15q0 38 -45 58q-54 24 -136.5 35t-162 29.5t-127.5 73.5q-34 39 -34 96q0 24 6 51q57 272 451 273q61 0 117.5 -9.5t113.5 -33 t85 -72.5q18 -32 18 -75q0 -22 -5 -46q-12 -53 -54 -90q-38 -33 -91 -33h-12q-63 4 -84 53q-7 16 -7 32q0 33 27 69q-33 45 -141 45q-180 0 -199 -92q-1 -7 -1 -13q0 -28 31 -46q38 -22 100.5 -31t132 -26t129 -40.5t88.5 -79.5q19 -36 19 -82q0 -26 -5 -55 q-18 -86 -73.5 -145.5t-131.5 -86t-142.5 -36.5t-134 -10t-124 7t-119 28.5t-91.5 68.5q-21 33 -21 79q-1 19 3 40z" />
<glyph unicode="t" horiz-adv-x="706" d="M176 770q10 39 41 66.5t78 27.5h55l27 123q8 43 43 68.5t76 25.5t64 -24q16 -17 17 -44q0 -12 -4 -26l-26 -123h178q47 0 69 -27q15 -19 14 -43q0 -11 -3 -24q-8 -39 -42 -65.5t-77 -26.5h-178l-80 -379q-7 -30 -6 -52q0 -69 61 -69q35 0 92 41q30 20 58 20q17 0 33 -8 q43 -22 43 -69q0 -41 -35 -78q-104 -94 -248 -94q-129 0 -179 73q-30 44 -30 118q0 51 14 118l80 379h-55q-45 0 -66 27q-16 20 -15 48q0 8 1 17z" />
<glyph unicode="u" horiz-adv-x="1224" d="M174 770q8 39 39 66.5t74 27.5h182q43 0 67 -24q17 -18 17 -47q0 -10 -2 -21l-74 -342q-10 -46 -10 -83q0 -164 190 -165q92 0 166 61.5t103 178.5l55 256h-76q-43 0 -61 27q-14 20 -14 46q0 9 1 19q8 39 39 66.5t74 27.5h184q41 0 66 -24q17 -17 17 -45q0 -11 -3 -25 l-123 -584h74q43 0 62 -26q13 -18 12 -43q0 -11 -2 -23q-8 -39 -38 -66.5t-73 -27.5h-184q-41 0 -65 25q-17 18 -17 47q0 10 2 22l18 82q-25 -80 -114.5 -139.5t-200.5 -59.5q-186 0 -264 104q-48 63 -48 176q0 71 19 163l56 258h-74q-45 0 -64 27q-13 18 -12 42q-1 11 2 23 z" />
<glyph unicode="v" horiz-adv-x="1187" d="M160 770q10 41 39.5 68.5t74.5 27.5h310q45 0 64 -28q13 -19 13 -42q0 -12 -4 -26q-6 -37 -37.5 -63.5t-74.5 -26.5h-23l127 -432l309 430h-28q-45 0 -64 27q-14 20 -14 46q0 9 2 19q8 39 39 66.5t76 27.5h309q43 0 61 -27q13 -19 13 -44q0 -11 -2 -23q-6 -37 -37 -64.5 t-74 -27.5h-72l-401 -545q-66 -88 -95.5 -110.5t-72.5 -22.5t-69.5 23.5t-55.5 109.5l-170 547h-67q-45 0 -64 27q-14 20 -14 45q0 9 2 18z" />
<glyph unicode="w" horiz-adv-x="1679" d="M160 770q8 39 38.5 66.5t75.5 27.5h316q43 0 62 -27q14 -19 14 -45q0 -11 -2 -22q-6 -37 -37 -64.5t-76 -27.5h-41l63 -457l312 551q51 92 137 92q90 0 100 -92l74 -551l260 457h-41q-43 0 -62 27q-15 20 -15 47q0 9 1 18q8 39 40 66.5t75 27.5h315q45 0 64 -27 q13 -19 13 -44q0 -11 -3 -23q-6 -37 -42 -64.5t-81 -27.5h-49l-344 -559q-47 -74 -88 -101.5t-92 -27.5q-49 0 -78 27.5t-45 101.5l-72 416l-247 -416q-47 -74 -89.5 -101.5t-91.5 -27.5q-51 0 -79.5 27.5t-43.5 101.5l-106 559h-49q-45 0 -69 28q-19 22 -19 49q1 7 2 15z " />
<glyph unicode="x" horiz-adv-x="999" d="M10 92q8 39 42 66.5t83 27.5h78l258 267l-123 225h-92q-45 0 -63 27q-14 20 -14 46q0 9 1 19q8 39 40 66.5t75 27.5h133q57 0 80 -35l121 -219l215 219q37 35 92 35h131q45 0 65 -27q14 -19 13 -45q0 -11 -2 -22q-6 -37 -38 -64.5t-77 -27.5h-90l-223 -225l149 -267h78 q49 0 70 -27q15 -20 14 -46q0 -10 -2 -21q-8 -37 -40 -64.5t-81 -27.5h-125q-53 0 -73 41l-144 256l-252 -256q-39 -41 -88 -41h-125q-49 0 -71 28q-17 20 -17 45q0 9 2 19z" />
<glyph unicode="y" horiz-adv-x="1165" d="M113 -209q-1 8 -1 15q0 71 72 112q40 22 74 22q30 0 55 -18q29 -20 33 -61q-6 -39 -24 -58q45 -61 198 -61q113 0 200 59.5t116 194.5l36 172q-20 -72 -112 -134.5t-201 -62.5q-188 0 -268 99q-49 61 -50 174q0 70 19 159l59 275h-73q-45 0 -64 27q-13 18 -12 42 q0 11 2 23q8 39 39 66.5t74 27.5h184q43 0 66 -24q17 -18 16 -46q0 -10 -2 -22l-78 -364q-7 -38 -7 -71q0 -163 191 -163q94 0 167 61.5t102 176.5l57 266h-76q-43 0 -61 27q-14 20 -14 46q0 9 1 19q8 39 39 66.5t74 27.5h184q41 0 66 -24q17 -17 17 -45q0 -11 -3 -25 l-157 -741q-49 -233 -207 -340t-359 -107q-72 0 -134 9.5t-119.5 32t-89 65.5t-29.5 102z" />
<glyph unicode="z" horiz-adv-x="1013" d="M70 90q14 61 75 98l641 490h-360l-35 -74q-35 -76 -112 -80h-11q-59 0 -73 45q-10 27 6 62l84 172q18 37 42.5 49t67.5 12h643q41 0 59 -24q12 -17 12 -38q0 -10 -3 -22q-14 -70 -70 -102l-618 -492h358l60 103q42 60 96 60q12 0 24 -3q60 -11 60 -75q0 -29 -21 -62 l-77 -139q-45 -70 -113 -70h-649q-51 0 -72 27q-16 20 -16 47q1 7 2 16z" />
<glyph unicode="{" horiz-adv-x="737" d="M168 565q-1 7 -1 13q0 57 50 96q33 27 74 26q70 0 121 88.5t75 206.5q18 86 29.5 133.5t33 106.5t45 90t61.5 60.5t89.5 41t118.5 11.5q70 0 76 -66q1 -9 1 -17q0 -58 -48 -98q-33 -25 -72 -24q-35 0 -60.5 -37t-38.5 -81t-30 -122q-43 -203 -116.5 -295t-206.5 -98 q129 -8 163 -102q16 -42 16 -106q0 -78 -24 -187q-22 -76 -22 -142q0 -8 1 -16q3 -72 52 -72q70 0 76 -67q1 -7 0 -13q0 -59 -51 -98q-31 -25 -70 -24q-68 0 -115 10t-71.5 40t-35.5 58q-8 21 -9 58q0 13 2 29q4 58 12 104.5t26 132.5q19 65 19 129q0 34 -5 67 q-15 96 -85 97q-72 -1 -80 67z" />
<glyph unicode="|" horiz-adv-x="372" d="M57 -199l379 1780q14 72 94 90q76 20 111 -26q20 -25 12 -64l-379 -1780q-16 -74 -98 -90q-74 -18 -108 29q-19 24 -11 61z" />
<glyph unicode="}" horiz-adv-x="737" d="M53 -160q-1 9 -1 17q0 56 48 94q31 25 70 24q49 0 77.5 60.5t51.5 169.5q43 201 116.5 294t207.5 101q-131 6 -166 100q-15 41 -15 102q0 79 25 191q22 86 22 152q0 8 -1 16q-3 72 -52 72q-70 0 -74 65q-1 7 0 14q0 60 50 101q33 25 71 25q45 0 81 -6.5t61.5 -15.5 t42 -29.5t28 -39t13.5 -52t2 -58.5t-7.5 -72t-13.5 -79l-18 -91q-19 -68 -19 -133q0 -33 4 -65q14 -96 84 -97q72 0 80 -67q1 -7 1 -13q0 -57 -50 -96q-33 -27 -74 -26q-70 0 -120 -87t-74 -206q-18 -88 -29.5 -133t-33 -104.5t-45 -87t-60.5 -57.5t-88 -40t-119 -10 q-70 -1 -76 67z" />
<glyph unicode="~" horiz-adv-x="1042" d="M355 1158q-1 6 -1 12q0 35 35 75q139 139 258 150q12 1 23 1q48 0 88 -22q49 -27 93 -54q38 -24 77 -24h12q61 6 135 76q28 25 59 25q12 0 24 -3q44 -13 51 -55q1 -6 1 -12q0 -36 -34 -76q-139 -139 -258 -149q-8 -1 -16 -1q-69 0 -146 49q-80 50 -125 50h-6 q-63 -6 -136 -74q-28 -25 -59 -25q-12 0 -23 4q-45 13 -52 53z" />
<glyph unicode="&#xa1;" horiz-adv-x="344" d="M-41 -555l217 1034q10 47 44 71.5t75 24.5t64 -24q16 -17 17 -45q0 -12 -3 -27l-219 -1034q-8 -43 -44 -68.5t-75 -25.5t-62 25q-17 19 -16 47q0 11 2 22zM225 770q10 49 50 80t85.5 31t71.5 -31q19 -22 19 -54q0 -12 -2 -26q-8 -47 -49.5 -79t-86.5 -32q-43 0 -69 32 q-20 24 -21 58q0 10 2 21z" />
<glyph unicode="&#xa2;" horiz-adv-x="970" d="M145 426q33 158 154 279.5t289 160.5l22 99q14 72 95 90q23 6 42 6q44 0 68 -33q15 -18 15 -42q0 -10 -3 -21l-20 -91q109 -18 175 -76q56 -49 56 -114q0 -12 -2 -25q-8 -55 -51 -88.5t-94 -38.5h-6q-53 0 -80 38q-16 22 -16 49q0 21 10 45q-29 35 -113 34 q-106 0 -202.5 -76.5t-121.5 -195.5q-7 -30 -6 -58q0 -75 48 -130q67 -76 174 -76q135 0 227 65q33 18 55 19h5q35 0 57 -27q17 -21 16 -46q0 -9 -2 -19q-2 -27 -29 -54q-92 -96 -289 -118l-20 -89q-16 -74 -98 -90q-21 -5 -39 -5q-45 0 -70 34q-13 17 -13 40q0 10 3 21 l22 101q-152 39 -222 158q-47 80 -47 175q0 48 11 99z" />
<glyph unicode="&#xa3;" horiz-adv-x="1228" d="M49 98q8 39 40 68t77 29h33q74 0 127 78.5t69 156.5q9 39 9 95q0 32 -3 69h-139q-47 0 -65 29q-13 20 -13 45q0 11 2 24q8 39 40 67.5t77 28.5h76q-1 20 -1 40q0 107 19 198q25 117 90.5 202t155.5 128t178 61.5t183 18.5q219 0 376 -99q36 -33 36 -74q0 -8 -1 -16 q-8 -51 -61 -85q-30 -19 -60 -19l-47 12q-156 78 -289 78q-303 0 -346 -207q-11 -50 -11 -118q0 -54 7 -120h176q47 0 68 -29q15 -21 15 -47q0 -10 -3 -22q-8 -39 -40.5 -67.5t-80.5 -28.5h-116q0 -86 -17 -162q-25 -121 -116 -237h624q49 0 69 -29q13 -19 13 -43 q0 -13 -4 -27q-8 -39 -40 -67.5t-79 -28.5h-952q-45 0 -65 30q-14 21 -13 46q0 10 2 22z" />
<glyph unicode="&#xa4;" horiz-adv-x="1136" d="M104 223q-1 6 0 12q0 45 41 89l76 61q-34 71 -34 157q0 49 12 103q31 143 129 254l-47 59q-16 21 -16 46q0 26 18 55q35 57 90 74q17 5 32 5q35 0 62 -26l55 -70q121 55 256 56q156 0 260 -72l105 86q31 25 64 27h7q29 0 50 -17q23 -18 35 -45q8 -16 8 -33q0 -12 -3 -26 q-9 -33 -40 -60l-107 -88q20 -59 20 -123q0 -49 -12 -102q-23 -121 -110 -231l73 -90q17 -22 17.5 -47t-17.5 -54q-35 -57 -90 -73q-17 -5 -32 -6q-35 0 -64 26l-74 92q-131 -68 -280 -67q-131 0 -230 51l-92 -76q-34 -27 -67 -27q-18 0 -36 8q-53 21 -59 72zM416 645 q-7 -35 -8 -66q0 -74 42 -130q58 -80 174.5 -80t209 79.5t114.5 196.5q7 35 8 67q0 74 -41 130q-57 80 -173.5 80t-208.5 -80t-117 -197z" />
<glyph unicode="&#xa5;" horiz-adv-x="1366" d="M293 1231l22 104q8 43 48 72t83 29t69 -28q19 -21 19 -52q0 -10 -2 -21l-22 -104q-16 -78 -16 -143q0 -128 61 -210q92 -124 289 -124q195 0 340 123.5t192 353.5l23 104q8 43 48 72t83 29t68 -28q19 -21 20 -52q0 -10 -2 -21l-23 -104q-59 -279 -238 -460t-446 -212 l-12 -55h268q49 0 49 -45t-43 -66q-14 -6 -30 -6h-269l-12 -51h268q49 0 49.5 -45t-42.5 -66q-14 -6 -31 -6h-268l-25 -115q-8 -45 -46 -74.5t-81 -29.5q-45 0 -71 29q-19 22 -19 54q0 10 2 21l25 115h-267q-47 0 -47 45q0 47 43 66q14 6 29 6h266l12 51h-266q-47 0 -47 45 q0 47 43 66q14 6 29 6h266l12 55q-254 31 -357 212q-66 115 -66 270q0 88 22 190z" />
<glyph unicode="&#xa6;" horiz-adv-x="372" d="M31 -319l164 763q14 72 94 91q23 6 42 6q44 0 68 -33q15 -18 15 -43q0 -10 -2 -21l-164 -763q-16 -74 -98 -91q-21 -5 -39 -5q-45 0 -70 34q-13 17 -13 40q0 11 3 22zM270 807l164 764q14 72 94 90q23 6 43 6q44 0 68 -33q15 -18 15 -42q0 -10 -3 -21l-164 -764 q-14 -72 -94 -90q-23 -6 -42 -6q-44 0 -68 32q-15 18 -15 43q0 10 2 21z" />
<glyph unicode="&#xa7;" horiz-adv-x="911" d="M178 119q6 31 33 54q24 22 56 22h5q6 -2 31 -11.5t42 -14.5l44 -13q27 -8 55.5 -11.5t57.5 -3.5q162 0 182 90q1 5 1 10q0 30 -43 48q-50 20 -125 36.5t-146.5 41t-113.5 84.5q-29 41 -29 98q0 25 5 53q31 143 185 205q-100 57 -101 147q0 43 17 88q78 221 416 222 q125 0 217 -35q78 -30 78 -77q0 -8 -3 -17q-8 -33 -34 -56q-24 -21 -54 -20h-6l-40 13l-56 19q-23 7 -61.5 13t-73.5 6q-160 0 -180 -90l-2 -10q0 -30 44 -47q50 -20 124.5 -37t146.5 -41.5t114 -83.5q29 -41 29 -99q0 -25 -6 -53q-29 -139 -186 -205q100 -54 100 -143 q0 -51 -16 -92q-78 -221 -416 -221q-125 0 -216 36q-77 30 -77 77q0 9 2 18zM414 621q-2 -10 -3 -20q0 -60 91 -85q44 -12 86 -12q66 0 131 28q76 35 88 99q2 10 2 19q0 60 -90 85q-44 12 -87 12q-66 0 -130 -28q-76 -35 -88 -98z" />
<glyph unicode="&#xa8;" horiz-adv-x="583" d="M248 1118q8 49 50 82t89 33q45 0 73 -34q21 -26 21 -60q0 -10 -2 -21q-12 -51 -53 -82.5t-86 -31.5q-49 0 -77 31q-19 22 -19 54q0 13 4 29zM573 1118q8 49 50.5 82t89.5 33q45 0 72 -33q21 -25 22 -60q0 -10 -2 -22q-12 -51 -52 -82.5t-87 -31.5q-49 0 -77 31 q-19 22 -19 54q-1 13 3 29z" />
<glyph unicode="&#xa9;" horiz-adv-x="1572" d="M193 715q66 309 324.5 520t582 211t491.5 -211q121 -152 121 -354q0 -79 -18 -166q-63 -297 -321.5 -514t-586.5 -217q-217 0 -369.5 103t-208.5 269q-33 96 -33 201q1 77 18 158zM322 466q29 -114 98 -196t171.5 -127t219.5 -45q246 0 471 176.5t283 440.5q14 66 14 127 q0 165 -100 302q-137 187 -404 187q-264 0 -483 -188.5t-270 -427.5q-14 -68 -14 -130t14 -119zM487 709q41 193 204 324.5t376 131.5q137 0 232 -64q81 -55 82 -132q0 -13 -3 -27q-8 -57 -51 -90t-94 -37h-6q-55 0 -80 38q-14 22 -15 47q0 22 11 46q-31 35 -115 35 q-106 0 -202.5 -77t-120.5 -195q-7 -30 -7 -58q0 -75 50 -131q68 -76 174 -76q137 0 225 66q33 18 55 18q3 0 6 1q37 0 57 -26q17 -22 16 -50q0 -8 -1 -17q-6 -29 -31 -53q-117 -123 -370 -123q-213 0 -323 130q-80 95 -80 220q0 48 11 99z" />
<glyph unicode="&#xaa;" horiz-adv-x="1196" d="M145 432q39 186 187.5 318.5t345.5 132.5q203 0 285 -152l8 35q10 47 45 72.5t78 25.5t69 -25q19 -18 19 -49q0 -11 -2 -24l-123 -580h73q43 0 62 -26q13 -18 13 -43q0 -11 -3 -23q-8 -39 -37.5 -66.5t-72.5 -27.5h-185q-41 0 -64 25q-17 18 -18 47q0 10 2 22l9 35 q-145 -150 -351 -149q-197 0 -287 132q-64 93 -64 212q-1 52 11 108zM362 432q-8 -37 -8 -70q0 -75 42 -128q60 -77 173 -76q115 0 209 75.5t119 198.5q8 37 8 69q0 76 -44 129q-62 75 -177 75q-111 0 -203 -77t-119 -196z" />
<glyph unicode="&#xab;" horiz-adv-x="1028" d="M134 441q9 46 61 85l340 256q35 27 69 28q17 0 34 -7q51 -21 51 -72q0 -48 -50 -92l-258 -197l174 -196q20 -27 19 -57.5t-22.5 -56.5t-48.5 -43q-25 -16 -53 -15h-7q-32 2 -54 26l-231 256q-26 30 -26 65q0 10 2 20zM523 442q9 45 61 84l338 256q37 27 71 28q17 0 34 -7 q50 -20 50 -69.5t-51 -94.5l-256 -197l172 -196q20 -27 20.5 -57.5t-21 -56.5t-49.5 -43q-25 -16 -54 -15h-7q-33 2 -55 26l-229 256q-26 32 -26 67q0 9 2 19z" />
<glyph unicode="&#xac;" horiz-adv-x="1093" d="M195 625q8 39 40.5 68.5t79.5 29.5h772q47 0 66 -29q13 -20 13 -46q0 -12 -3 -25l-71 -336q-16 -76 -91 -97q-17 -5 -33 -5q-41 0 -63 36q-11 18 -11 41q0 12 3 25l51 239h-676q-47 0 -66 30q-14 21 -14 46q1 11 3 23z" />
<glyph unicode="&#xad;" horiz-adv-x="772" d="M209 463q-1 8 -1 16q0 53 48 90q31 25 72 25h364q72 0 80 -66q1 -8 1 -16q0 -53 -48 -90q-33 -25 -74 -25h-364q-72 0 -78 66z" />
<glyph unicode="&#xae;" horiz-adv-x="1640" d="M193 715q66 313 316.5 522t590.5 209t499 -208q113 -147 114 -349q0 -83 -19 -174q-66 -303 -315 -517t-593 -214q-231 0 -382.5 103t-201.5 268q-28 91 -28 191q1 82 19 169zM322 715q-16 -77 -17 -147q0 -172 102 -296q142 -174 404 -174t479 174t275 443q15 71 15 137 q0 162 -92 294q-130 185 -412.5 185t-491.5 -185t-262 -431zM420 395q6 35 32.5 59.5t67.5 24.5h68l94 441h-68q-41 0 -57 24.5t-8 61.5q6 33 32.5 56t67.5 23h420q160 0 242 -54q61 -40 60 -129q0 -31 -7 -68q-31 -150 -154 -211q49 -55 50 -144h55q41 0 57 -24 q12 -18 12 -42q0 -9 -2 -18q-8 -35 -34.5 -58.5t-67.5 -23.5h-139q-39 0 -61 23q-16 16 -15 43q0 10 2 22q5 20 5 39q0 39 -20 75q-30 52 -112 63h-145l-37 -177q-8 -41 -41 -64.5t-72 -23.5h-160q-41 0 -57 25q-11 16 -11 36q0 10 3 21zM827 729h185q127 0 149 105 q3 14 3 26q0 32 -19 50q-27 26 -88 26h-185z" />
<glyph unicode="&#xaf;" horiz-adv-x="675" d="M297 1067q-1 8 -1 16q0 53 48 91q31 25 72 24h350q72 0 80 -63q2 -10 1 -19q0 -51 -48 -88q-33 -25 -74 -24h-350q-70 0 -78 63z" />
<glyph unicode="&#xb0;" horiz-adv-x="679" d="M297 1159q25 117 126 196t220 79t187 -79q51 -58 51 -137q0 -28 -7 -59q-25 -121 -127 -200.5t-220.5 -79.5t-187.5 80q-49 58 -49 137q0 30 7 63zM457 1161q-4 -18 -4 -34q0 -36 19 -62q28 -37 85 -37t101 37t57 92q3 16 3 30q0 37 -20 64q-27 37 -86 37q-57 0 -100 -36 t-55 -91z" />
<glyph unicode="&#xb1;" horiz-adv-x="866" d="M61 94q8 39 40 69t77 30h578q47 0 67 -30q15 -21 15 -47q0 -10 -2 -22q-8 -39 -41 -67.5t-80 -28.5h-578q-45 0 -64 29q-14 20 -14 45q0 10 2 22zM168 639q8 41 41 69.5t80 28.5h203l43 201q10 47 43.5 73.5t72.5 26.5q41 0 65 -26q16 -19 16 -47q0 -12 -3 -27l-43 -201 h203q47 0 67 -29q15 -21 15 -48q0 -10 -2 -21q-8 -39 -41 -67.5t-80 -28.5h-203l-43 -205q-10 -47 -46 -73.5t-75 -26.5t-61 26q-15 18 -16 46q0 13 4 28l43 205h-203q-47 0 -68 28q-15 20 -14 47q0 10 2 21z" />
<glyph unicode="&#xb2;" horiz-adv-x="765" d="M264 1143q10 47 55 71l223 150q73 51 146.5 121.5t83.5 122.5q8 39 -14.5 57t-50.5 18q-76 0 -154 -32q-27 -12 -50 -12q-37 0 -59 34q-12 22 -12 43q0 32 27 64q16 18 41 32q2 0 19 10l22 11q4 2 21.5 9t25.5 9t26.5 8.5t31.5 8.5l33 5q19 3 39.5 4t43.5 1 q135 0 202 -75q49 -55 48 -128q0 -27 -6 -57q-12 -59 -54.5 -117.5t-114 -116t-119.5 -90t-132 -84.5q49 -4 71 -4q92 0 164 35q28 12 51 12q28 0 49 -17q29 -24 29 -62q0 -11 -3 -23q-11 -53 -66 -82q-109 -57 -312 -57q-37 0 -85 6t-104 19.5t-90 40.5q-27 22 -27 51 q-1 7 1 14z" />
<glyph unicode="&#xb3;" horiz-adv-x="669" d="M244 1153q10 49 62 81q28 17 56 17q23 0 46 -12q55 -31 155 -31q41 0 80 21.5t45 60.5q6 25 0 39t-23.5 20.5t-33 8.5t-41.5 2h-51q-66 0 -74 63q-1 8 -1 17q0 53 46 90q31 25 70 24h51q43 0 71.5 20.5t34.5 51.5q6 18 -16.5 37.5t-65.5 19.5q-70 0 -137 -36 q-30 -12 -55 -12q-23 0 -41 11q-32 19 -32 63v13q5 55 61 93q33 20 110.5 41.5t134.5 21.5q145 0 217 -67q52 -49 53 -124q0 -28 -8 -61q-8 -49 -37.5 -98t-72.5 -70q35 -8 60 -57q17 -33 18 -70q0 -18 -4 -37q-29 -139 -137.5 -210.5t-258.5 -71.5q-172 0 -254 57 q-31 28 -30 64q0 10 2 20z" />
<glyph unicode="&#xb4;" horiz-adv-x="450" d="M296 1089q0 33 30 72l223 248q33 39 76 44q8 1 15 1q33 0 56 -18q31 -23 34 -61v-6q0 -35 -30 -75l-223 -243q-33 -39 -77 -45l-18 -2q-32 0 -52 18q-34 28 -34 67z" />
<glyph unicode="&#xb5;" horiz-adv-x="1087" d="M78 -162l196 928q10 47 46 72.5t77 25.5q43 0 70 -25.5t16 -72.5l-69 -328q-27 -123 20 -187.5t144 -64.5q231 0 286 248l70 332q10 47 47 72.5t80 25.5q41 0 66.5 -25.5t15.5 -72.5l-74 -342q-92 -440 -479 -440q-111 0 -177.5 55t-56.5 133l-69 -334q-10 -45 -47 -71.5 t-80 -26.5q-41 0 -66.5 25.5t-15.5 72.5z" />
<glyph unicode="&#xb6;" horiz-adv-x="1114" d="M223 973q41 184 183.5 303t330.5 119h387q33 0 48.5 -2t35.5 -15q19 -11 19 -33q0 -4 -6 -77l-299 -1405q-10 -47 -48 -73t-81 -26q-45 0 -71 26q-18 18 -18 48q0 12 3 25l284 1339h-114l-285 -1339q-10 -47 -48 -73t-81 -26q-45 0 -72 26q-19 18 -19 48q0 11 3 25 l147 692q-170 14 -253 128q-57 79 -57 187q0 49 11 103z" />
<glyph unicode="&#xb7;" horiz-adv-x="364" d="M193 618q10 53 54 90t95 37q49 0 76 -36q19 -27 19 -62q0 -14 -3 -29q-12 -53 -54 -88.5t-91 -35.5q-53 0 -81 36q-19 26 -19 58q0 14 4 30z" />
<glyph unicode="&#xb8;" horiz-adv-x="317" d="M-157 -365q17 12 36 13q13 0 27 -6q51 -25 92 -25q13 0 25 2q104 10 114 117q1 6 1 12q0 40 -25 56q-29 19 -58.5 15.5t-45 9.5t13.5 48l108 158l90 -19l-80 -114h23q102 -2 126 -99q6 -24 6 -47q0 -72 -54 -141q-76 -96 -209 -111q-24 -3 -47 -3q-76 0 -146 36 q-28 18 -27 46q-1 31 30 52z" />
<glyph unicode="&#xb9;" horiz-adv-x="415" d="M362 1573q-18 26 -17 53q0 29 20 60q14 18 36 32l201 129q41 23 86 23q39 0 62 -30q15 -20 15 -45q0 -11 -3 -23l-139 -656q-8 -43 -43 -67.5t-76 -24.5t-66 25q-18 18 -18 47q0 10 2 20l96 463l-49 -27q-26 -14 -49 -14q-34 0 -58 35z" />
<glyph unicode="&#xba;" horiz-adv-x="776" d="M295 1126q35 158 142.5 252.5t262.5 94.5q154 0 222 -94q45 -62 44 -152q0 -47 -12 -101q-33 -158 -140 -253t-261 -95q-156 0 -223 94q-46 63 -46 157q0 45 11 97zM467 1124q-8 -39 -9 -70q0 -120 126 -120q160 0 198 192q9 41 9 73q0 120 -125 120q-158 0 -199 -195z " />
<glyph unicode="&#xbb;" horiz-adv-x="1028" d="M141 132q-5 12 -4 25q0 15 6 32q12 32 45 57l254 196l-170 197q-21 24 -21 52q0 20 11 43q27 54 80 70q16 5 30 4q35 0 66 -26l228 -256q28 -31 27 -65q0 -9 -2 -19q-9 -45 -62 -86l-336 -256q-33 -25 -67 -26h-7q-29 0 -47 15q-21 17 -31 43zM530 132q-5 12 -4 26 q0 15 5 31q11 32 44 57l254 196l-170 197q-21 23 -21 51q0 21 12 44q28 54 80 70q15 5 30 4q35 0 65 -26l228 -256q29 -30 29 -64q0 -10 -3 -20q-10 -45 -63 -86l-336 -256q-33 -25 -66 -26h-6q-28 0 -47 15q-21 17 -31 43z" />
<glyph unicode="&#xbc;" horiz-adv-x="1982" d="M317 1149q4 55 58 90l260 172q39 25 90 25q47 0 67 -35q13 -23 12 -53q0 -16 -3 -33l-137 -647q-10 -45 -47 -71t-78 -26t-68 26q-19 18 -19 47q0 11 3 24l100 471l-106 -68q-29 -13 -54 -12q-23 0 -43 11q-35 21 -35 69v10zM389 -3q-5 14 -5 29q0 32 24 70l1075 1362 q41 50 93 51q3 0 6 -1q56 -3 72 -47q4 -12 4 -26q0 -34 -28 -75l-1073 -1362q-39 -48 -90 -48h-6q-56 3 -72 47zM1104 102l110 516q16 72 97 91q20 4 36 4q48 0 72 -35q16 -26 8 -60l-90 -419h242l123 575q16 72 96 88q20 4 37 5q46 0 70 -33q16 -25 8 -60l-123 -575h61 q76 0 82 -66q1 -6 1 -12q0 -55 -50 -94q-33 -27 -74 -27h-61l-37 -170q-14 -72 -94 -90q-21 -5 -39 -5q-44 0 -68 32q-13 17 -12 40q0 11 2 23l37 170h-360q-45 0 -65 30q-13 19 -13 44q0 13 4 28z" />
<glyph unicode="&#xbd;" horiz-adv-x="1943" d="M317 1149q4 55 58 90l260 172q39 25 90 25q47 0 67 -35q13 -23 12 -53q0 -16 -3 -33l-137 -647q-10 -45 -47 -71t-78 -26t-68 26q-19 18 -19 47q0 11 3 24l100 471l-106 -68q-29 -13 -54 -12q-23 0 -43 11q-35 21 -35 69v10zM389 -3q-5 14 -5 29q0 32 24 70l1075 1362 q41 50 93 51q3 0 6 -1q56 -3 72 -47q4 -12 4 -26q0 -34 -28 -75l-1073 -1362q-39 -48 -90 -48h-6q-56 3 -72 47zM1110 117q10 49 53 73l116 59l124 64l109 63q65 38 102 66.5t67.5 63.5t36.5 67q3 12 3 24q0 36 -31 56q-41 27 -113 27q-100 0 -182 -35q-25 -12 -46 -12 q-36 0 -55 39q-11 22 -10 45q0 37 29 74q16 20 43 34q115 55 305 56q150 0 239 -65q69 -50 68 -134q0 -25 -6 -53q-10 -43 -33.5 -84t-50.5 -73t-73 -66.5l-75.5 -55t-87 -50.5t-80.5 -41l-81 -37q-57 -26 -64 -27q57 -16 158 -17q113 0 215 29q24 7 43 7q48 0 61 -46 q4 -14 4 -27q0 -42 -38 -80q-18 -18 -45 -26q-147 -51 -345 -51q-41 0 -95 5t-121.5 18t-109.5 42q-35 24 -35 55q0 7 1 13z" />
<glyph unicode="&#xbe;" horiz-adv-x="2418" d="M177 503q9 50 63 82q29 17 57 17q24 0 47 -12q86 -41 217 -41q80 0 141.5 37t77.5 112q3 17 4 32q0 46 -34 68q-45 30 -138 29h-28q-68 0 -74 66q-1 8 -1 16q0 55 48 92q31 25 70 25h28q160 0 189 125q2 13 2 24q0 36 -25 55q-33 26 -110 25q-98 0 -201 -47 q-32 -15 -57 -15q-35 0 -58 30q-18 24 -18 49q0 30 24 63q16 25 45 43q117 76 316 76q174 0 255 -79q59 -57 58 -149q0 -35 -8 -75q-37 -164 -197 -223q76 -10 120 -78q31 -48 31 -106q0 -24 -5 -50q-39 -174 -172 -260t-318 -86q-199 0 -317 68q-33 30 -34 69q0 9 2 18z M805 -3q-5 14 -5 29q0 32 23 70l1076 1362q41 50 93 51q3 0 6 -1q56 -3 72 -47q4 -12 4 -26q0 -34 -28 -75l-1073 -1362q-39 -48 -90 -48h-6q-56 3 -72 47zM1542 102l111 517q16 72 96 90q20 4 36 4q48 0 73 -35q16 -25 8 -59l-90 -420h241l123 575q16 72 96 88q20 4 37 5 q46 0 70 -33q16 -25 8 -60l-123 -575h62q76 0 82 -66q1 -6 0 -12q0 -55 -50 -94q-33 -27 -73 -27h-62l-37 -170q-14 -72 -94 -90q-21 -5 -39 -5q-44 0 -67 32q-13 17 -13 40q0 11 2 23l37 170h-360q-45 0 -65 30q-13 19 -12 44q-1 13 3 28z" />
<glyph unicode="&#xbf;" horiz-adv-x="886" d="M-49 -350q8 57 50 90t93 37q6 1 13 0q43 0 70 -25q25 -23 25 -64q0 -11 -1 -22q-2 -12 -15 -20q29 -35 113 -35q92 0 158.5 53t89.5 154q4 21 4 41q0 28 -8 55q-14 45 -42 78l-61 74q-33 41 -59.5 80.5t-37.5 101.5q-5 25 -5 52q0 39 10 83l19 82q14 74 92 92q20 5 37 5 q43 0 65 -34q13 -18 13 -41q0 -10 -3 -22l-18 -82q-4 -19 -4 -38q0 -37 16 -72q25 -52 65 -97l80 -93q40 -48 60 -117q11 -38 11 -79q0 -33 -7 -69q-31 -143 -118 -234.5t-185 -124t-211 -32.5q-129 0 -228 62q-84 53 -84 131q0 15 3 30zM387 745q12 61 63.5 100.5 t108.5 39.5t92 -39q26 -29 26 -70q0 -14 -3 -31q-14 -59 -66.5 -99t-108 -40t-90.5 40q-26 29 -26 67q0 15 4 32z" />
<glyph unicode="&#xc0;" d="M20 100q8 41 41 72t80 31h95l120 571q66 309 275 494.5t518 185.5t441 -185q88 -124 89 -303q0 -89 -22 -192l-121 -571h96q45 0 64 -29q13 -20 13 -46q0 -11 -3 -24q-8 -43 -40 -73.5t-77 -30.5h-407q-47 0 -68 30q-15 21 -15 48q0 11 3 22q8 41 42 72t81 31h94l70 336 h-867l-69 -336h98q45 0 63 -29q13 -20 13 -46q0 -11 -2 -24q-8 -43 -40 -73.5t-77 -30.5h-410q-47 0 -66 30q-14 21 -14 47q0 11 2 23zM565 733h867l8 41q16 76 16 141q0 128 -62 211q-93 125 -288 125t-340 -125t-193 -352zM921 1863q28 52 77 64q12 3 23 3q37 0 69 -32 l124 -157q19 -24 20 -50q0 -22 -13 -45q-29 -52 -79 -65q-12 -3 -24 -3q-36 0 -67 30l-123 159q-19 24 -20 51q1 22 13 45z" />
<glyph unicode="&#xc1;" d="M20 100q8 41 41 72t80 31h95l120 571q66 309 275 494.5t518 185.5t441 -185q88 -124 89 -303q0 -89 -22 -192l-121 -571h96q45 0 64 -29q13 -20 13 -46q0 -11 -3 -24q-8 -43 -40 -73.5t-77 -30.5h-407q-47 0 -68 30q-15 21 -15 48q0 11 3 22q8 41 42 72t81 31h94l70 336 h-867l-69 -336h98q45 0 63 -29q13 -20 13 -46q0 -11 -2 -24q-8 -43 -40 -73.5t-77 -30.5h-410q-47 0 -66 30q-14 21 -14 47q0 11 2 23zM565 733h867l8 41q16 76 16 141q0 128 -62 211q-93 125 -288 125t-340 -125t-193 -352zM1137 1661q0 35 30 74l222 247q35 39 77 44 q8 1 16 1q33 0 54 -18q31 -23 34 -60v-7q0 -35 -30 -74l-223 -244q-33 -39 -77 -45q-9 -1 -18 -1q-32 0 -53 17q-32 27 -32 66z" />
<glyph unicode="&#xc2;" d="M20 100q8 41 41 72t80 31h95l120 571q66 309 275 494.5t518 185.5t441 -185q88 -124 89 -303q0 -89 -22 -192l-121 -571h96q45 0 64 -29q13 -20 13 -46q0 -11 -3 -24q-8 -43 -40 -73.5t-77 -30.5h-407q-47 0 -68 30q-15 21 -15 48q0 11 3 22q8 41 42 72t81 31h94l70 336 h-867l-69 -336h98q45 0 63 -29q13 -20 13 -46q0 -11 -2 -24q-8 -43 -40 -73.5t-77 -30.5h-410q-47 0 -66 30q-14 21 -14 47q0 11 2 23zM565 733h867l8 41q16 76 16 141q0 128 -62 211q-93 125 -288 125t-340 -125t-193 -352zM913 1564q-14 11 -14 27q0 23 29 56l237 243 q35 43 86 43q45 0 70 -43l131 -243q11 -21 11 -38q0 -28 -29 -45q-19 -11 -37 -11q-26 0 -47 24l-142 156l-207 -156q-32 -24 -57 -24q-17 0 -31 11z" />
<glyph unicode="&#xc3;" d="M20 100q8 41 41 72t80 31h95l120 571q66 309 275 494.5t518 185.5t441 -185q88 -124 89 -303q0 -89 -22 -192l-121 -571h96q45 0 64 -29q13 -20 13 -46q0 -11 -3 -24q-8 -43 -40 -73.5t-77 -30.5h-407q-47 0 -68 30q-15 21 -15 48q0 11 3 22q8 41 42 72t81 31h94l70 336 h-867l-69 -336h98q45 0 63 -29q13 -20 13 -46q0 -11 -2 -24q-8 -43 -40 -73.5t-77 -30.5h-410q-47 0 -66 30q-14 21 -14 47q0 11 2 23zM565 733h867l8 41q16 76 16 141q0 128 -62 211q-93 125 -288 125t-340 -125t-193 -352zM836 1622q-1 6 -1 11q0 32 29 67 q111 117 217 125q8 1 15 1q55 0 115 -39q66 -42 114 -42h4q47 2 107 57q24 21 50 22q11 0 22 -4q38 -13 44 -51q1 -6 1 -11q0 -32 -29 -66q-119 -115 -217 -123q-8 -1 -17 -1q-58 0 -120 39q-68 42 -107 42h-4q-45 -2 -109 -60q-23 -21 -48 -21q-11 0 -22 4q-38 13 -44 50z " />
<glyph unicode="&#xc4;" d="M20 100q8 41 41 72t80 31h95l120 571q66 309 275 494.5t518 185.5t441 -185q88 -124 89 -303q0 -89 -22 -192l-121 -571h96q45 0 64 -29q13 -20 13 -46q0 -11 -3 -24q-8 -43 -40 -73.5t-77 -30.5h-407q-47 0 -68 30q-15 21 -15 48q0 11 3 22q8 41 42 72t81 31h94l70 336 h-867l-69 -336h98q45 0 63 -29q13 -20 13 -46q0 -11 -2 -24q-8 -43 -40 -73.5t-77 -30.5h-410q-47 0 -66 30q-14 21 -14 47q0 11 2 23zM565 733h867l8 41q16 76 16 141q0 128 -62 211q-93 125 -288 125t-340 -125t-193 -352zM920 1692q10 49 52 81.5t89 32.5q45 0 73 -33 q20 -25 20 -57q0 -12 -3 -24q-10 -51 -52 -83t-87 -32q-47 0 -75 32q-20 23 -20 56q0 13 3 27zM1245 1692q10 49 52 81.5t89 32.5q45 0 73 -33q20 -25 20 -57q0 -12 -2 -24q-10 -51 -51.5 -83t-88.5 -32t-74 32q-20 23 -21 56q0 13 3 27z" />
<glyph unicode="&#xc5;" d="M20 100q8 41 41 72t80 31h95l120 571q66 309 275 494.5t518 185.5t441 -185q88 -124 89 -303q0 -89 -22 -192l-121 -571h96q45 0 64 -29q13 -20 13 -46q0 -11 -3 -24q-8 -43 -40 -73.5t-77 -30.5h-407q-47 0 -68 30q-15 21 -15 48q0 11 3 22q8 41 42 72t81 31h94l70 336 h-867l-69 -336h98q45 0 63 -29q13 -20 13 -46q0 -11 -2 -24q-8 -43 -40 -73.5t-77 -30.5h-410q-47 0 -66 30q-14 21 -14 47q0 11 2 23zM565 733h867l8 41q16 76 16 141q0 128 -62 211q-93 125 -288 125t-340 -125t-193 -352zM954 1823q23 115 112 184.5t214 69.5 q121 0 183 -71q46 -52 46 -127q0 -27 -6 -56q-23 -102 -117 -176t-213 -74q-123 0 -183 72q-43 51 -43 119q0 28 7 59zM1100 1823q-3 -13 -3 -25q0 -32 20 -57q28 -35 85.5 -35t101.5 36t54 81q3 13 3 26q0 35 -22 60q-29 35 -88 35q-57 0 -99 -34t-52 -87z" />
<glyph unicode="&#xc6;" horiz-adv-x="2445" d="M20 100q8 41 41 72t80 31h95l120 571q66 309 275 494.5t518 185.5q264 0 405 -141l5 22q8 41 39.5 70t78.5 29h867q45 0 63 -31q13 -21 13 -48q0 -12 -3 -24l-49 -227q-10 -47 -46 -73q-33 -24 -71 -24q-3 0 -6 1q-41 0 -66 24q-18 18 -19 47q0 12 3 25l27 127h-637 l-84 -400h539q45 0 64 -30q14 -22 14 -49q0 -11 -2 -23q-8 -41 -40 -71.5t-79 -30.5h-539l-90 -424h666l82 170q36 74 110 74q2 0 4 -1q66 -2 82 -57q3 -9 3 -20q0 -23 -13 -50l-121 -247q-35 -72 -108 -72h-1076q-47 0 -66 31q-14 22 -14 49q0 12 2 24q8 39 41 69t80 30 h111l70 336h-867l-69 -336h98q45 0 63 -29q13 -20 13 -46q0 -11 -2 -24q-8 -43 -40 -73.5t-77 -30.5h-410q-47 0 -66 30q-14 21 -14 47q0 11 2 23zM565 733h867l12 64q11 64 11 119q0 133 -65 217q-93 119 -284 118q-195 0 -340 -125t-193 -352z" />
<glyph unicode="&#xc7;" horiz-adv-x="1482" d="M211 713q72 332 338 531.5t592 199.5q166 0 301 -60.5t186 -183.5q20 -47 20 -84q0 -20 -6 -37q-16 -66 -70 -100q-49 -31 -100 -31h-12q-57 4 -90 43q-21 25 -21 60q0 20 7 43q10 27 24 47q-70 100 -280 100q-225 0 -411.5 -146.5t-237.5 -381.5q-14 -67 -14 -127 q0 -149 87 -255q123 -148 350 -149q236 0 449 144q33 20 64 19h4q33 -1 52 -21.5t27.5 -47t-5 -58.5t-46.5 -54q-242 -174 -555 -184l-41 -60h23q102 -2 126 -98q6 -23 5 -47q0 -72 -55 -142q-72 -96 -207 -110q-25 -3 -49 -4q-78 0 -146 37q-29 18 -27.5 47.5t30.5 50.5 q17 12 36 12q13 0 27 -6q53 -24 96 -24q12 0 23 2q104 10 114 116q1 6 1 12q0 40 -25 57q-29 19 -59.5 15t-45 9.5t14.5 48.5l59 86q-297 20 -458 219q-114 141 -114 340q0 81 19 172z" />
<glyph unicode="&#xc8;" horiz-adv-x="1409" d="M51 104q8 39 41 69t80 30h111l217 1028h-109q-47 0 -66 32q-14 22 -14 49q0 11 2 23q8 39 41 69t80 30h1073q45 0 64 -31q13 -21 13 -48q0 -12 -3 -24l-49 -227q-10 -47 -46 -73q-33 -24 -71 -24q-3 0 -6 1q-41 0 -67 24q-18 18 -18 47q0 12 3 25l27 127h-637l-84 -400 h538q45 0 65 -30q14 -22 14 -49q0 -11 -3 -23q-8 -41 -39.5 -71.5t-79.5 -30.5h-538l-90 -424h665l82 170q36 74 111 74q2 0 4 -1q66 -2 82 -57q3 -9 2 -20q0 -23 -12 -50l-121 -247q-35 -72 -109 -72h-1075q-47 0 -67 31q-14 22 -13 49q0 11 2 24zM853 1863q28 52 78 64 q12 3 22 3q37 0 69 -32l125 -157q19 -24 19 -50q0 -22 -13 -45q-29 -52 -79 -65q-12 -3 -23 -3q-36 0 -68 30l-123 159q-19 24 -19 51q0 22 12 45z" />
<glyph unicode="&#xc9;" horiz-adv-x="1409" d="M51 104q8 39 41 69t80 30h111l217 1028h-109q-47 0 -66 32q-14 22 -14 49q0 11 2 23q8 39 41 69t80 30h1073q45 0 64 -31q13 -21 13 -48q0 -12 -3 -24l-49 -227q-10 -47 -46 -73q-33 -24 -71 -24q-3 0 -6 1q-41 0 -67 24q-18 18 -18 47q0 12 3 25l27 127h-637l-84 -400 h538q45 0 65 -30q14 -22 14 -49q0 -11 -3 -23q-8 -41 -39.5 -71.5t-79.5 -30.5h-538l-90 -424h665l82 170q36 74 111 74q2 0 4 -1q66 -2 82 -57q3 -9 2 -20q0 -23 -12 -50l-121 -247q-35 -72 -109 -72h-1075q-47 0 -67 31q-14 22 -13 49q0 11 2 24zM1069 1661q0 35 31 74 l221 247q35 39 78 44q8 1 15 1q33 0 54 -18q31 -23 34 -60v-7q0 -35 -30 -74l-223 -244q-33 -39 -77 -45q-9 -1 -18 -1q-32 0 -52 17q-33 27 -33 66z" />
<glyph unicode="&#xca;" horiz-adv-x="1409" d="M51 104q8 39 41 69t80 30h111l217 1028h-109q-47 0 -66 32q-14 22 -14 49q0 11 2 23q8 39 41 69t80 30h1073q45 0 64 -31q13 -21 13 -48q0 -12 -3 -24l-49 -227q-10 -47 -46 -73q-33 -24 -71 -24q-3 0 -6 1q-41 0 -67 24q-18 18 -18 47q0 12 3 25l27 127h-637l-84 -400 h538q45 0 65 -30q14 -22 14 -49q0 -11 -3 -23q-8 -41 -39.5 -71.5t-79.5 -30.5h-538l-90 -424h665l82 170q36 74 111 74q2 0 4 -1q66 -2 82 -57q3 -9 2 -20q0 -23 -12 -50l-121 -247q-35 -72 -109 -72h-1075q-47 0 -67 31q-14 22 -13 49q0 11 2 24zM847.5 1563.5 q-14.5 11.5 -14.5 27.5q0 23 29 56l238 243q35 43 86 43q45 0 69 -43l131 -243q11 -21 11 -38q0 -28 -29 -45q-19 -12 -36 -12q-26 0 -48 25l-141 156l-207 -156q-32 -25 -57 -25q-17 0 -31.5 11.5z" />
<glyph unicode="&#xcb;" horiz-adv-x="1409" d="M51 104q8 39 41 69t80 30h111l217 1028h-109q-47 0 -66 32q-14 22 -14 49q0 11 2 23q8 39 41 69t80 30h1073q45 0 64 -31q13 -21 13 -48q0 -12 -3 -24l-49 -227q-10 -47 -46 -73q-33 -24 -71 -24q-3 0 -6 1q-41 0 -67 24q-18 18 -18 47q0 12 3 25l27 127h-637l-84 -400 h538q45 0 65 -30q14 -22 14 -49q0 -11 -3 -23q-8 -41 -39.5 -71.5t-79.5 -30.5h-538l-90 -424h665l82 170q36 74 111 74q2 0 4 -1q66 -2 82 -57q3 -9 2 -20q0 -23 -12 -50l-121 -247q-35 -72 -109 -72h-1075q-47 0 -67 31q-14 22 -13 49q0 11 2 24zM852 1692q10 49 52 81.5 t89 32.5q45 0 73 -33q20 -25 20 -57q0 -12 -3 -24q-10 -51 -52 -83t-87 -32q-47 0 -75 32q-20 23 -20 56q0 13 3 27zM1178 1692q10 49 52 81.5t89 32.5q45 0 73 -33q20 -25 20 -57q0 -12 -3 -24q-10 -51 -51 -83t-88 -32t-75 32q-20 23 -20 56q0 13 3 27z" />
<glyph unicode="&#xcc;" horiz-adv-x="673" d="M57 104q8 39 41 69t80 30h94l217 1028h-96q-47 0 -66 32q-14 22 -14 49q0 11 2 23q8 39 41 69t80 30h408q45 0 64 -31q14 -22 14 -48q0 -11 -2 -24q-10 -41 -42 -70.5t-77 -29.5h-94l-218 -1028h99q45 0 63 -31q13 -21 13 -47q0 -12 -3 -25q-8 -41 -39.5 -70.5 t-76.5 -29.5h-410q-47 0 -66 31q-14 22 -14 49q0 11 2 24zM417 1863q28 52 78 64q12 3 22 3q37 0 69 -32l125 -157q19 -24 19 -50q0 -22 -13 -45q-29 -52 -79 -65q-12 -3 -24 -3q-36 0 -67 30l-123 159q-19 24 -19 51q0 22 12 45z" />
<glyph unicode="&#xcd;" horiz-adv-x="673" d="M57 104q8 39 41 69t80 30h94l217 1028h-96q-47 0 -66 32q-14 22 -14 49q0 11 2 23q8 39 41 69t80 30h408q45 0 64 -31q14 -22 14 -48q0 -11 -2 -24q-10 -41 -42 -70.5t-77 -29.5h-94l-218 -1028h99q45 0 63 -31q13 -21 13 -47q0 -12 -3 -25q-8 -41 -39.5 -70.5 t-76.5 -29.5h-410q-47 0 -66 31q-14 22 -14 49q0 11 2 24zM633 1661q0 35 31 74l221 247q35 39 78 44q8 1 15 1q33 0 54 -18q31 -23 34 -60v-7q0 -35 -30 -74l-223 -244q-33 -39 -77 -45q-9 -1 -18 -1q-32 0 -52 17q-33 27 -33 66z" />
<glyph unicode="&#xce;" horiz-adv-x="673" d="M57 104q8 39 41 69t80 30h94l217 1028h-96q-47 0 -66 32q-14 22 -14 49q0 11 2 23q8 39 41 69t80 30h408q45 0 64 -31q14 -22 14 -48q0 -11 -2 -24q-10 -41 -42 -70.5t-77 -29.5h-94l-218 -1028h99q45 0 63 -31q13 -21 13 -47q0 -12 -3 -25q-8 -41 -39.5 -70.5 t-76.5 -29.5h-410q-47 0 -66 31q-14 22 -14 49q0 11 2 24zM411.5 1564q-14.5 11 -14.5 27q0 23 29 56l238 243q37 43 86 43q45 0 69 -43l131 -243q11 -21 11 -38q0 -28 -29 -45q-19 -11 -36 -11q-26 0 -48 24l-141 156l-207 -156q-32 -24 -57 -24q-17 0 -31.5 11z" />
<glyph unicode="&#xcf;" horiz-adv-x="673" d="M57 104q8 39 41 69t80 30h94l217 1028h-96q-47 0 -66 32q-14 22 -14 49q0 11 2 23q8 39 41 69t80 30h408q45 0 64 -31q14 -22 14 -48q0 -11 -2 -24q-10 -41 -42 -70.5t-77 -29.5h-94l-218 -1028h99q45 0 63 -31q13 -21 13 -47q0 -12 -3 -25q-8 -41 -39.5 -70.5 t-76.5 -29.5h-410q-47 0 -66 31q-14 22 -14 49q0 11 2 24zM416 1692q10 49 52 81.5t89 32.5q45 0 73 -33q20 -25 20 -57q0 -12 -3 -24q-10 -51 -52 -83t-87 -32q-47 0 -75 32q-20 23 -20 56q0 13 3 27zM741 1692q10 49 52.5 81.5t89.5 32.5q45 0 72 -33q20 -25 21 -57 q0 -12 -3 -24q-10 -51 -51 -83t-88.5 -32t-74.5 32q-20 23 -20 56q-1 13 2 27z" />
<glyph unicode="&#xd0;" horiz-adv-x="1511" d="M63 664q-1 8 -1 16q0 53 49 90q31 25 71 25h111l106 501q14 68 194.5 106t375.5 38q160 0 291 -43t225 -132t126 -227q15 -65 15 -142q0 -84 -18 -181q-51 -240 -198.5 -412t-341 -252t-411.5 -80q-125 0 -240.5 14.5t-197.5 48.5q-73 30 -73 70q0 5 1 11l105 483h-111 q-72 0 -78 66zM385 217q121 -43 315 -43q246 0 430.5 142.5t239.5 398.5q16 75 16 139q0 153 -89 248q-126 135 -371 135q-209 0 -332 -41l-86 -401h113q74 0 81 -66q1 -8 1 -15q0 -53 -50 -91q-31 -25 -73 -25h-113z" />
<glyph unicode="&#xd1;" d="M20 104q8 39 41 69t80 30h95l120 571q66 309 275 494.5t518 185.5t441 -185q88 -124 89 -303q0 -89 -22 -192l-121 -571h96q45 0 64 -31q13 -21 12 -47q0 -12 -2 -25q-8 -41 -40 -70.5t-77 -29.5h-407q-47 0 -68 31q-15 22 -15 50q0 11 3 23q8 39 42 69t81 30h94l121 571 q16 76 16 141q0 128 -62 211q-93 125 -288 125t-340 -125t-193 -352l-120 -571h98q45 0 63 -31q13 -21 13 -47q0 -12 -2 -25q-8 -41 -40 -70.5t-77 -29.5h-410q-47 0 -66 31q-14 22 -14 49q0 11 2 24zM838 1622q-1 6 -1 11q0 32 29 67q111 117 217 125q8 1 16 1 q55 0 114 -39q66 -42 114 -42h4q47 2 107 57q24 21 50 22q11 0 22 -4q38 -13 44 -51q1 -6 1 -11q0 -32 -29 -66q-119 -115 -217 -123q-8 -1 -16 -1q-58 0 -121 39q-68 42 -107 42h-4q-45 -2 -109 -60q-23 -21 -48 -21q-11 0 -22 4q-38 13 -44 50z" />
<glyph unicode="&#xd2;" horiz-adv-x="1679" d="M211 711q66 307 332 520t600 213q336 0 513 -213q129 -155 129 -361q0 -76 -18 -159q-66 -307 -333 -519t-603 -212q-334 0 -509 211q-128 154 -129 360q0 77 18 160zM449 711q-13 -62 -14 -118q0 -146 88 -257q122 -154 351.5 -154t418 155t235.5 374q13 61 13 117 q0 147 -89 258q-123 155 -352.5 155t-416.5 -154.5t-234 -375.5zM919 1863q28 52 77 64q12 3 23 3q37 0 68 -32l125 -157q19 -24 19 -50q0 -22 -12 -45q-29 -52 -79 -65q-12 -3 -24 -3q-36 0 -67 30l-123 159q-19 24 -20 51q1 22 13 45z" />
<glyph unicode="&#xd3;" horiz-adv-x="1679" d="M211 711q66 307 332 520t600 213q336 0 513 -213q129 -155 129 -361q0 -76 -18 -159q-66 -307 -333 -519t-603 -212q-334 0 -509 211q-128 154 -129 360q0 77 18 160zM449 711q-13 -62 -14 -118q0 -146 88 -257q122 -154 351.5 -154t418 155t235.5 374q13 61 13 117 q0 147 -89 258q-123 155 -352.5 155t-416.5 -154.5t-234 -375.5zM1132 1661q0 35 31 74l221 247q35 39 78 44q8 1 16 1q33 0 54 -18q31 -23 34 -60v-7q0 -35 -30 -74l-223 -244q-33 -39 -77 -45q-9 -1 -18 -1q-32 0 -53 17q-33 27 -33 66z" />
<glyph unicode="&#xd4;" horiz-adv-x="1679" d="M211 711q66 307 332 520t600 213q336 0 513 -213q129 -155 129 -361q0 -76 -18 -159q-66 -307 -333 -519t-603 -212q-334 0 -509 211q-128 154 -129 360q0 77 18 160zM449 711q-13 -62 -14 -118q0 -146 88 -257q122 -154 351.5 -154t418 155t235.5 374q13 61 13 117 q0 147 -89 258q-123 155 -352.5 155t-416.5 -154.5t-234 -375.5zM911 1564q-14 11 -14 27q0 23 29 56l237 243q37 43 86 43q45 0 70 -43l131 -243q11 -21 11 -38q0 -28 -29 -45q-19 -11 -37 -11q-26 0 -47 24l-142 156l-207 -156q-32 -24 -57 -24q-17 0 -31 11z" />
<glyph unicode="&#xd5;" horiz-adv-x="1679" d="M211 711q66 307 332 520t600 213q336 0 513 -213q129 -155 129 -361q0 -76 -18 -159q-66 -307 -333 -519t-603 -212q-334 0 -509 211q-128 154 -129 360q0 77 18 160zM449 711q-13 -62 -14 -118q0 -146 88 -257q122 -154 351.5 -154t418 155t235.5 374q13 61 13 117 q0 147 -89 258q-123 155 -352.5 155t-416.5 -154.5t-234 -375.5zM834 1622q-1 6 -1 11q0 32 29 67q111 117 217 125q8 1 15 1q55 0 115 -39q66 -42 114 -42h4q47 2 107 57q24 21 50 22q11 0 22 -4q38 -13 44 -51q1 -6 1 -11q0 -32 -29 -66q-119 -115 -217 -123q-8 -1 -17 -1 q-58 0 -120 39q-68 42 -108 42h-3q-45 -2 -109 -60q-23 -21 -48 -21q-11 0 -22 4q-38 13 -44 50z" />
<glyph unicode="&#xd6;" horiz-adv-x="1679" d="M211 711q66 307 332 520t600 213q336 0 513 -213q129 -155 129 -361q0 -76 -18 -159q-66 -307 -333 -519t-603 -212q-334 0 -509 211q-128 154 -129 360q0 77 18 160zM449 711q-13 -62 -14 -118q0 -146 88 -257q122 -154 351.5 -154t418 155t235.5 374q13 61 13 117 q0 147 -89 258q-123 155 -352.5 155t-416.5 -154.5t-234 -375.5zM915 1692q10 49 52.5 81.5t89.5 32.5q45 0 72 -33q20 -25 21 -57q0 -12 -3 -24q-10 -51 -52 -83t-87 -32q-47 0 -75 32q-20 23 -20 56q-1 13 2 27zM1241 1692q10 49 52 81.5t89 32.5q45 0 73 -33 q20 -25 20 -57q0 -12 -2 -24q-10 -51 -51.5 -83t-88.5 -32t-75 32q-20 23 -20 56q0 13 3 27z" />
<glyph unicode="&#xd7;" horiz-adv-x="878" d="M6 96q6 41 43 74l326 274l-191 252q-18 28 -18 56q0 9 2 18q8 37 43 66q35 27 72 28h4q34 0 63 -30l189 -250l295 250q42 31 77 30h4q37 -2 60 -28q17 -20 17 -48q0 -9 -2 -19q-7 -40 -46 -73l-301 -254l209 -272q17 -26 17 -52q0 -11 -3 -22q-10 -37 -43 -65 q-35 -29 -71 -31h-5q-34 0 -61 31l-207 272l-319 -272q-40 -31 -76 -31h-4q-37 2 -57 31q-18 19 -18 48q0 8 1 17z" />
<glyph unicode="&#xd8;" d="M231 711q66 307 332 520t600 213q137 0 260 -43l31 39q41 50 93 50h6q56 -3 72 -47q4 -12 4 -26q0 -34 -27 -76l-21 -22q135 -100 191 -260q32 -94 32 -198q0 -73 -16 -150q-66 -307 -333 -519t-603 -212q-156 0 -283 51l-41 -51q-38 -49 -88 -50h-8q-55 4 -72 48 q-5 14 -5 29q0 33 26 71l33 43q-123 100 -172 255q-27 86 -28 180q0 75 17 155zM469 711q-12 -62 -12 -118q0 -165 108 -280l713 906q-78 23 -158 22q-229 0 -416.5 -154.5t-234.5 -375.5zM715 213q76 -31 180 -31q229 0 417.5 155t235.5 374q14 63 14 120q0 177 -128 297z " />
<glyph unicode="&#xd9;" d="M283 1335q8 41 39.5 70t78.5 29h410q45 0 65 -31q14 -22 13 -48q0 -11 -2 -24q-10 -41 -42 -70.5t-77 -29.5h-98l-121 -572q-16 -77 -16 -141q0 -127 61 -210q92 -124 286.5 -124t341 124t193.5 351l121 572h-94q-47 0 -67 31q-14 22 -13 49q0 12 2 24q8 41 41 70t80 29 h407q45 0 65 -31q14 -22 14 -48q0 -11 -3 -24q-10 -41 -42 -70.5t-77 -29.5h-96l-121 -569q-66 -311 -275.5 -495.5t-519 -184.5t-440.5 184q-87 123 -87 302q0 90 22 194l121 569h-95q-47 0 -65 31q-13 21 -13 48q0 12 3 25zM923 1863q28 52 77 64q12 3 23 3q37 0 69 -32 l125 -157q19 -24 19 -50q0 -22 -13 -45q-29 -52 -79 -65q-12 -3 -24 -3q-36 0 -67 30l-123 159q-19 24 -20 51q1 22 13 45z" />
<glyph unicode="&#xda;" d="M283 1335q8 41 39.5 70t78.5 29h410q45 0 65 -31q14 -22 13 -48q0 -11 -2 -24q-10 -41 -42 -70.5t-77 -29.5h-98l-121 -572q-16 -77 -16 -141q0 -127 61 -210q92 -124 286.5 -124t341 124t193.5 351l121 572h-94q-47 0 -67 31q-14 22 -13 49q0 12 2 24q8 41 41 70t80 29 h407q45 0 65 -31q14 -22 14 -48q0 -11 -3 -24q-10 -41 -42 -70.5t-77 -29.5h-96l-121 -569q-66 -311 -275.5 -495.5t-519 -184.5t-440.5 184q-87 123 -87 302q0 90 22 194l121 569h-95q-47 0 -65 31q-13 21 -13 48q0 12 3 25zM1139 1661q0 35 30 74l222 247q35 39 77 44 q8 1 16 1q33 0 54 -18q31 -23 34 -60v-7q0 -35 -30 -74l-223 -244q-33 -39 -77 -45q-9 -1 -18 -1q-32 0 -53 17q-32 27 -32 66z" />
<glyph unicode="&#xdb;" d="M283 1335q8 41 39.5 70t78.5 29h410q45 0 65 -31q14 -22 13 -48q0 -11 -2 -24q-10 -41 -42 -70.5t-77 -29.5h-98l-121 -572q-16 -77 -16 -141q0 -127 61 -210q92 -124 286.5 -124t341 124t193.5 351l121 572h-94q-47 0 -67 31q-14 22 -13 49q0 12 2 24q8 41 41 70t80 29 h407q45 0 65 -31q14 -22 14 -48q0 -11 -3 -24q-10 -41 -42 -70.5t-77 -29.5h-96l-121 -569q-66 -311 -275.5 -495.5t-519 -184.5t-440.5 184q-87 123 -87 302q0 90 22 194l121 569h-95q-47 0 -65 31q-13 21 -13 48q0 12 3 25zM915 1564q-14 11 -14 27q0 23 29 56l237 243 q37 43 86 43q45 0 70 -43l131 -243q11 -21 11 -38q0 -28 -29 -45q-19 -11 -37 -11q-26 0 -47 24l-142 156l-206 -156q-32 -24 -57 -24q-18 0 -32 11z" />
<glyph unicode="&#xdc;" d="M283 1335q8 41 39.5 70t78.5 29h410q45 0 65 -31q14 -22 13 -48q0 -11 -2 -24q-10 -41 -42 -70.5t-77 -29.5h-98l-121 -572q-16 -77 -16 -141q0 -127 61 -210q92 -124 286.5 -124t341 124t193.5 351l121 572h-94q-47 0 -67 31q-14 22 -13 49q0 12 2 24q8 41 41 70t80 29 h407q45 0 65 -31q14 -22 14 -48q0 -11 -3 -24q-10 -41 -42 -70.5t-77 -29.5h-96l-121 -569q-66 -311 -275.5 -495.5t-519 -184.5t-440.5 184q-87 123 -87 302q0 90 22 194l121 569h-95q-47 0 -65 31q-13 21 -13 48q0 12 3 25zM922 1692q10 49 52 81.5t89 32.5q45 0 73 -33 q20 -25 20 -57q0 -12 -3 -24q-10 -51 -52 -83t-87 -32q-47 0 -75 32q-20 23 -20 56q0 13 3 27zM1247 1692q10 49 52 81.5t90 32.5q45 0 72 -33q20 -25 20 -57q0 -12 -2 -24q-10 -51 -51.5 -83t-88.5 -32t-74 32q-20 23 -21 56q0 13 3 27z" />
<glyph unicode="&#xdd;" horiz-adv-x="1648" d="M264 1335q8 41 40 70t79 29h410q45 0 64 -31q14 -22 14 -48q0 -11 -3 -24q-10 -41 -41.5 -70.5t-76.5 -29.5h-101l-8 -45q-17 -79 -17 -145q0 -125 61 -206q93 -124 287.5 -124t341 123.5t195.5 351.5l9 45h-97q-47 0 -65 31q-13 21 -13 48q0 12 3 25q8 41 39.5 70 t78.5 29h410q45 0 64 -31q14 -22 14 -48q0 -11 -2 -24q-10 -41 -42 -70.5t-77 -29.5h-98l-9 -43q-59 -281 -239 -462t-445 -212l-65 -311h96q45 0 64 -31q13 -21 12 -47q0 -12 -2 -25q-8 -41 -40 -70.5t-77 -29.5h-407q-47 0 -68 31q-15 22 -15 50q0 11 3 23q8 39 41.5 69 t81.5 30h94l65 311q-254 31 -355 212q-64 114 -64 268q0 90 22 194l8 43h-94q-47 0 -66 31q-13 21 -12 48q-1 12 2 25zM1116 1661q0 35 31 74l221 247q35 39 78 44q8 1 15 1q33 0 55 -18q31 -23 33 -60q0 -3 1 -7q0 -35 -30 -74l-224 -244q-33 -39 -76 -45q-9 -1 -18 -1 q-32 0 -53 17q-33 27 -33 66z" />
<glyph unicode="&#xde;" horiz-adv-x="1302" d="M147 104l261 1225q10 47 48 76t83 29q43 0 68 -30q18 -21 19 -50q0 -12 -3 -25l-31 -153h371q117 0 210 -21.5t170.5 -70t107.5 -140.5q16 -49 16 -107q0 -53 -13 -114q-27 -127 -96.5 -219t-167.5 -140.5t-200.5 -70t-219.5 -21.5h-371l-37 -168q-8 -45 -45.5 -74.5 t-80.5 -29.5q-45 0 -71 29q-19 22 -20 54q0 10 2 21zM442 475h371q344 0 399 248q7 34 8 63q0 86 -64 129q-85 57 -238 58h-371z" />
<glyph unicode="&#xdf;" horiz-adv-x="1277" d="M197 96l198 932q43 203 195.5 309.5t372.5 106.5q223 0 335 -109q82 -79 82 -204q0 -48 -12 -103q-20 -104 -93 -180t-171 -105q119 -18 187 -93q47 -52 48 -137q0 -38 -10 -83q-20 -96 -61 -169t-100.5 -119t-121 -75.5t-139.5 -43t-138 -18.5t-134 -5q-45 0 -65 30 q-14 21 -13 46q0 11 2 22q8 41 40 71t77 30q82 0 139 7t120.5 28.5t104.5 70.5t58 123q6 27 6 48.5t-6 38.5t-13.5 30.5t-22.5 25t-28.5 18.5t-33 15t-35 13.5t-39 12.5t-37.5 13q-67 27 -67 81q0 9 1 17q8 35 34 54.5t71 38.5q47 18 67.5 28t57.5 35t57 56.5t29 74.5 q6 29 6 54q0 62 -40 100q-56 53 -190 53q-260 0 -303 -207l-198 -932q-8 -45 -46 -70.5t-81 -25.5q-45 0 -72 26q-20 20 -20 50q0 9 2 20z" />
<glyph unicode="&#xe0;" horiz-adv-x="1204" d="M154 432q39 186 187 318.5t345 132.5q203 0 285 -152l8 35q10 47 45 72.5t78 25.5t69 -25q19 -18 20 -49q0 -11 -3 -24l-123 -580h74q43 0 61 -26q13 -18 13 -43q0 -11 -3 -23q-8 -39 -37.5 -66.5t-72.5 -27.5h-185q-41 0 -64 25q-17 18 -18 47q0 10 3 22l8 35 q-145 -150 -350 -149q-197 0 -288 132q-64 93 -64 212q0 52 12 108zM371 432q-8 -37 -8 -70q0 -75 41 -128q60 -77 174 -76q115 0 209 75.5t118 198.5q8 37 8 69q0 76 -44 129q-62 75 -177 75q-111 0 -202.5 -77t-118.5 -196zM476 1289q28 52 78 65q12 3 23 3q37 0 68 -32 l127 -158q17 -23 18 -48q0 -22 -14 -47q-29 -52 -79 -64q-12 -3 -23 -3q-36 0 -66 29l-125 160q-19 24 -19 51q0 21 12 44z" />
<glyph unicode="&#xe1;" horiz-adv-x="1204" d="M154 432q39 186 187 318.5t345 132.5q203 0 285 -152l8 35q10 47 45 72.5t78 25.5t69 -25q19 -18 20 -49q0 -11 -3 -24l-123 -580h74q43 0 61 -26q13 -18 13 -43q0 -11 -3 -23q-8 -39 -37.5 -66.5t-72.5 -27.5h-185q-41 0 -64 25q-17 18 -18 47q0 10 3 22l8 35 q-145 -150 -350 -149q-197 0 -288 132q-64 93 -64 212q0 52 12 108zM371 432q-8 -37 -8 -70q0 -75 41 -128q60 -77 174 -76q115 0 209 75.5t118 198.5q8 37 8 69q0 76 -44 129q-62 75 -177 75q-111 0 -202.5 -77t-118.5 -196zM691 1089q0 33 30 72l223 248q33 39 76 44 q8 1 15 1q33 0 57 -18q31 -23 33 -61q0 -3 1 -6q0 -35 -30 -75l-224 -243q-33 -39 -76 -45l-18 -2q-32 0 -53 18q-34 28 -34 67z" />
<glyph unicode="&#xe2;" horiz-adv-x="1204" d="M154 432q39 186 187 318.5t345 132.5q203 0 285 -152l8 35q10 47 45 72.5t78 25.5t69 -25q19 -18 20 -49q0 -11 -3 -24l-123 -580h74q43 0 61 -26q13 -18 13 -43q0 -11 -3 -23q-8 -39 -37.5 -66.5t-72.5 -27.5h-185q-41 0 -64 25q-17 18 -18 47q0 10 3 22l8 35 q-145 -150 -350 -149q-197 0 -288 132q-64 93 -64 212q0 52 12 108zM371 432q-8 -37 -8 -70q0 -75 41 -128q60 -77 174 -76q115 0 209 75.5t118 198.5q8 37 8 69q0 76 -44 129q-62 75 -177 75q-111 0 -202.5 -77t-118.5 -196zM469.5 990.5q-14.5 11.5 -14.5 27.5q0 23 30 55 l236 244q39 43 88 43q47 0 68 -43l133 -244q10 -20 9 -36q0 -29 -30 -47q-19 -11 -36 -11q-25 0 -46 25l-141 155l-207 -155q-32 -24 -57 -25q-18 0 -32.5 11.5z" />
<glyph unicode="&#xe3;" horiz-adv-x="1204" d="M154 432q39 186 187 318.5t345 132.5q203 0 285 -152l8 35q10 47 45 72.5t78 25.5t69 -25q19 -18 20 -49q0 -11 -3 -24l-123 -580h74q43 0 61 -26q13 -18 13 -43q0 -11 -3 -23q-8 -39 -37.5 -66.5t-72.5 -27.5h-185q-41 0 -64 25q-17 18 -18 47q0 10 3 22l8 35 q-145 -150 -350 -149q-197 0 -288 132q-64 93 -64 212q0 52 12 108zM371 432q-8 -37 -8 -70q0 -75 41 -128q60 -77 174 -76q115 0 209 75.5t118 198.5q8 37 8 69q0 76 -44 129q-62 75 -177 75q-111 0 -202.5 -77t-118.5 -196zM391 1049q-1 6 -1 11q0 32 30 66 q117 117 217 125q8 1 16 1q56 0 115 -39q65 -42 112 -42h5q47 2 106 58q24 21 51 21q11 0 23 -4q39 -13 45 -50q1 -6 1 -11q0 -32 -30 -67q-123 -115 -217 -123q-8 -1 -15 0q-57 0 -120 38q-68 42 -111 42h-4q-47 -2 -106 -59q-24 -21 -50 -22q-11 0 -23 4q-38 14 -44 51z " />
<glyph unicode="&#xe4;" horiz-adv-x="1204" d="M154 432q39 186 187 318.5t345 132.5q203 0 285 -152l8 35q10 47 45 72.5t78 25.5t69 -25q19 -18 20 -49q0 -11 -3 -24l-123 -580h74q43 0 61 -26q13 -18 13 -43q0 -11 -3 -23q-8 -39 -37.5 -66.5t-72.5 -27.5h-185q-41 0 -64 25q-17 18 -18 47q0 10 3 22l8 35 q-145 -150 -350 -149q-197 0 -288 132q-64 93 -64 212q0 52 12 108zM371 432q-8 -37 -8 -70q0 -75 41 -128q60 -77 174 -76q115 0 209 75.5t118 198.5q8 37 8 69q0 76 -44 129q-62 75 -177 75q-111 0 -202.5 -77t-118.5 -196zM475 1118q8 49 50 82t89 33q45 0 73 -34 q21 -26 21 -60q0 -10 -1 -21q-12 -51 -53.5 -82.5t-86.5 -31.5q-49 0 -77 31q-19 22 -19 54q0 13 4 29zM801 1118q8 49 50 82t89 33q45 0 73 -33q21 -25 21 -60q0 -10 -2 -22q-12 -51 -52 -82.5t-87 -31.5q-49 0 -77 31q-19 22 -19 54q0 13 4 29z" />
<glyph unicode="&#xe5;" horiz-adv-x="1204" d="M154 432q39 186 187 318.5t345 132.5q203 0 285 -152l8 35q10 47 45 72.5t78 25.5t69 -25q19 -18 20 -49q0 -11 -3 -24l-123 -580h74q43 0 61 -26q13 -18 13 -43q0 -11 -3 -23q-8 -39 -37.5 -66.5t-72.5 -27.5h-185q-41 0 -64 25q-17 18 -18 47q0 10 3 22l8 35 q-145 -150 -350 -149q-197 0 -288 132q-64 93 -64 212q0 52 12 108zM371 432q-8 -37 -8 -70q0 -75 41 -128q60 -77 174 -76q115 0 209 75.5t118 198.5q8 37 8 69q0 76 -44 129q-62 75 -177 75q-111 0 -202.5 -77t-118.5 -196zM508 1249q25 115 114 184.5t214 69.5 q121 0 183 -70q45 -51 45 -123q0 -28 -7 -61q-23 -102 -117 -176t-213 -74q-123 0 -182 72q-43 52 -43 122q0 27 6 56zM653 1249q-3 -13 -2 -24q0 -32 20 -58q28 -35 85 -34.5t101 36t54 80.5q3 14 3 27q0 34 -20 59q-28 35 -87 35t-101.5 -35t-52.5 -86z" />
<glyph unicode="&#xe6;" horiz-adv-x="1787" d="M162 432q39 184 202.5 317.5t376.5 133.5q240 0 340 -162q172 162 406 162q188 0 282 -89q73 -69 74 -157q0 -25 -6 -51q-27 -123 -143.5 -196t-284.5 -73q-156 0 -283 64q-4 -94 67 -157.5t193 -63.5q59 0 106.5 9t89.5 25.5t46 18.5q16 3 30 3q30 0 47 -15 q22 -19 22 -51q0 -5 -1 -11q-6 -53 -63 -88q-55 -33 -154 -55q-98 -20 -194 -21q-160 0 -268.5 73t-135.5 198q-66 -129 -176 -197.5t-252 -68.5q-180 0 -272 124q-63 85 -63 207q0 56 14 121zM379 432q-7 -35 -7 -65q0 -77 44 -133q61 -77 172 -76q115 0 207 74.5 t116 199.5q8 38 9 71q0 75 -42 127q-60 75 -173 75t-206 -77t-120 -196zM1159 502q90 -45 184 -56q28 -3 54 -3q75 0 135 27q80 36 100 95q6 16 6 31q0 36 -35 66q-50 41 -155 40q-86 0 -167 -56t-122 -144z" />
<glyph unicode="&#xe7;" horiz-adv-x="976" d="M145 426q41 193 204 325t376 132q137 0 231 -65q82 -56 82 -134q0 -12 -2 -25q-8 -55 -51 -88.5t-94 -38.5h-6q-53 0 -80 38q-16 22 -16 49q0 21 10 45q-29 35 -113 34q-106 0 -202.5 -76.5t-121.5 -195.5q-7 -30 -6 -58q0 -75 48 -130q67 -76 174 -76q135 0 227 65 q33 18 55 19h5q35 0 57 -27q17 -21 16 -46q0 -9 -2 -19q-2 -27 -29 -54q-113 -115 -354 -123l-53 -75h22q102 -2 126 -99q6 -24 6 -47q0 -72 -54 -141q-76 -96 -209 -111q-25 -3 -49 -3q-78 0 -145 36q-29 18 -28 48t31 50q17 12 36 13q13 0 26 -6q53 -24 97 -25q12 0 22 2 q104 10 115 117q1 6 0 12q0 40 -25 56q-29 19 -59.5 15.5t-45 9.5t14.5 48l74 107q-176 27 -260 149q-59 87 -60 197q0 46 10 96z" />
<glyph unicode="&#xe8;" horiz-adv-x="989" d="M145 426q43 203 207 330t365 127q188 0 282 -89q73 -69 74 -157q0 -25 -6 -51q-27 -123 -143.5 -196t-284.5 -73q-156 0 -283 64q-4 -94 67 -157.5t193 -63.5q59 0 106.5 9t89.5 25.5t46 18.5q16 3 30 3q30 0 47 -15q22 -19 22 -51q0 -5 -1 -11q-6 -53 -63 -88 q-55 -33 -154 -55q-98 -20 -194 -21q-215 0 -329 125q-82 91 -82 222q-1 49 11 104zM389 502q90 -45 184 -56q28 -3 54 -3q75 0 135 27q80 36 100 95q6 16 6 31q0 36 -35 66q-50 41 -155 40q-86 0 -167 -56t-122 -144zM488 1289q28 52 78 65q12 3 23 3q37 0 68 -32l127 -158 q17 -23 18 -48q0 -22 -14 -47q-29 -52 -78 -64q-12 -3 -24 -3q-36 0 -65 29l-125 160q-19 24 -20 51q0 21 12 44z" />
<glyph unicode="&#xe9;" horiz-adv-x="989" d="M145 426q43 203 207 330t365 127q188 0 282 -89q73 -69 74 -157q0 -25 -6 -51q-27 -123 -143.5 -196t-284.5 -73q-156 0 -283 64q-4 -94 67 -157.5t193 -63.5q59 0 106.5 9t89.5 25.5t46 18.5q16 3 30 3q30 0 47 -15q22 -19 22 -51q0 -5 -1 -11q-6 -53 -63 -88 q-55 -33 -154 -55q-98 -20 -194 -21q-215 0 -329 125q-82 91 -82 222q-1 49 11 104zM389 502q90 -45 184 -56q28 -3 54 -3q75 0 135 27q80 36 100 95q6 16 6 31q0 36 -35 65q-50 41 -155 41q-86 0 -167 -56t-122 -144zM703 1089q0 33 30 72l223 248q33 39 76 44q8 1 16 1 q33 0 56 -18q31 -23 34 -61v-6q0 -35 -30 -75l-223 -243q-33 -39 -77 -45l-18 -2q-32 0 -53 18q-34 28 -34 67z" />
<glyph unicode="&#xea;" horiz-adv-x="989" d="M145 426q43 203 207 330t365 127q188 0 282 -89q73 -69 74 -157q0 -25 -6 -51q-27 -123 -143.5 -196t-284.5 -73q-156 0 -283 64q-4 -94 67 -157.5t193 -63.5q59 0 106.5 9t89.5 25.5t46 18.5q16 3 30 3q30 0 47 -15q22 -19 22 -51q0 -5 -1 -11q-6 -53 -63 -88 q-55 -33 -154 -55q-98 -20 -194 -21q-215 0 -329 125q-82 91 -82 222q-1 49 11 104zM389 502q90 -45 184 -56q28 -3 54 -3q75 0 135 27q80 36 100 95q6 16 6 31q0 36 -35 66q-50 41 -155 40q-86 0 -167 -56t-122 -144zM482.5 990.5q-14.5 11.5 -14.5 27.5q0 23 30 55 l235 244q39 43 88 43q47 0 68 -43l133 -244q10 -20 10 -36q0 -29 -31 -47q-19 -11 -35 -11q-25 0 -46 25l-142 155l-207 -155q-32 -24 -57 -25q-17 0 -31.5 11.5z" />
<glyph unicode="&#xeb;" horiz-adv-x="989" d="M145 426q43 203 207 330t365 127q188 0 282 -89q73 -69 74 -157q0 -25 -6 -51q-27 -123 -143.5 -196t-284.5 -73q-156 0 -283 64q-4 -94 67 -157.5t193 -63.5q59 0 106.5 9t89.5 25.5t46 18.5q16 3 30 3q30 0 47 -15q22 -19 22 -51q0 -5 -1 -11q-6 -53 -63 -88 q-55 -33 -154 -55q-98 -20 -194 -21q-215 0 -329 125q-82 91 -82 222q-1 49 11 104zM389 502q90 -45 184 -56q28 -3 54 -3q75 0 135 27q80 36 100 95q6 16 6 31q0 36 -35 66q-50 41 -155 40q-86 0 -167 -56t-122 -144zM487 1118q8 49 50.5 82t89.5 33q45 0 72 -34 q21 -26 22 -60q0 -10 -2 -21q-12 -51 -53 -82.5t-86 -31.5q-49 0 -77 31q-19 22 -19 54q-1 13 3 29zM813 1118q8 49 50 82t89 33q45 0 73 -33q21 -25 21 -60q0 -10 -2 -22q-12 -51 -52 -82.5t-87 -31.5q-49 0 -77 31q-19 22 -19 54q0 13 4 29z" />
<glyph unicode="&#xec;" horiz-adv-x="462" d="M-41 92q8 39 38 66.5t75 27.5h75l105 492h-76q-45 0 -63 29q-13 20 -13 44q0 11 2 23q8 37 38 63.5t75 26.5h178q43 0 70 -25q19 -18 19 -49q0 -11 -3 -24l-123 -580h76q43 0 62 -27q13 -19 12 -44q0 -11 -2 -23q-8 -39 -38 -65.5t-73 -26.5h-360q-45 0 -64 27 q-13 18 -12 42q-1 11 2 23zM169 1289q28 52 78 65q12 3 22 3q37 0 69 -32l127 -158q17 -23 17 -48q0 -22 -13 -47q-29 -52 -79 -64q-12 -3 -23 -3q-36 0 -66 29l-125 160q-19 24 -19 51q0 21 12 44z" />
<glyph unicode="&#xed;" horiz-adv-x="462" d="M-41 92q8 39 38 66.5t75 27.5h75l105 492h-76q-45 0 -63 29q-13 20 -13 44q0 11 2 23q8 37 38 63.5t75 26.5h178q43 0 70 -25q19 -18 19 -49q0 -11 -3 -24l-123 -580h76q43 0 62 -27q13 -19 12 -44q0 -11 -2 -23q-8 -39 -38 -65.5t-73 -26.5h-360q-45 0 -64 27 q-13 18 -12 42q-1 11 2 23zM384 1089q0 33 30 72l223 248q33 39 76 44q8 1 15 1q33 0 56 -18q31 -23 34 -61v-6q0 -35 -30 -75l-223 -243q-33 -39 -77 -45l-18 -2q-32 0 -52 18q-34 28 -34 67z" />
<glyph unicode="&#xee;" horiz-adv-x="462" d="M-41 92q8 39 38 66.5t75 27.5h75l105 492h-76q-45 0 -63 29q-13 20 -13 44q0 11 2 23q8 37 38 63.5t75 26.5h178q43 0 70 -25q19 -18 19 -49q0 -11 -3 -24l-123 -580h76q43 0 62 -27q13 -19 12 -44q0 -11 -2 -23q-8 -39 -38 -65.5t-73 -26.5h-360q-45 0 -64 27 q-13 18 -12 42q-1 11 2 23zM162.5 990.5q-14.5 11.5 -14.5 27.5q0 23 30 55l236 244q39 43 88 43q47 0 67 -43l133 -244q10 -20 10 -36q0 -29 -30 -47q-19 -11 -36 -11q-25 0 -46 25l-141 155l-207 -155q-32 -24 -57 -25q-18 0 -32.5 11.5z" />
<glyph unicode="&#xef;" horiz-adv-x="462" d="M-41 92q8 39 38 66.5t75 27.5h75l105 492h-76q-45 0 -63 29q-13 20 -13 44q0 11 2 23q8 37 38 63.5t75 26.5h178q43 0 70 -25q19 -18 19 -49q0 -11 -3 -24l-123 -580h76q43 0 62 -27q13 -19 12 -44q0 -11 -2 -23q-8 -39 -38 -65.5t-73 -26.5h-360q-45 0 -64 27 q-13 18 -12 42q-1 11 2 23zM170 1118q8 49 50 82t89 33q45 0 73 -34q21 -26 21 -60q0 -10 -2 -21q-12 -51 -53 -82.5t-86 -31.5q-49 0 -77 31q-19 22 -19 54q0 13 4 29zM496 1118q8 49 50 82t89 33q45 0 73 -33q21 -25 21 -60q0 -10 -2 -22q-12 -51 -52 -82.5t-87 -31.5 q-49 0 -77 31q-19 22 -19 54q0 13 4 29z" />
<glyph unicode="&#xf0;" horiz-adv-x="1175" d="M153 222q-14 47 -14 102q0 57 15 125q45 205 204.5 325.5t350 120.5t264.5 -121q-10 172 -219 346l-82 -90q-29 -35 -70 -35q-31 0 -50.5 21.5t-14.5 52.5q2 18 24 47l78 86q-20 14 -92 60q-37 26 -37 62q0 12 4 26q6 35 41 63.5t74 30.5q31 2 57 -12l105 -62l77 86 q32 37 69 37h7q29 -4 45.5 -23.5t14.5 -46.5q-4 -31 -27 -53l-74 -80q338 -263 338 -642q0 -97 -22 -202q-29 -129 -94.5 -224t-155.5 -146t-183.5 -75t-195.5 -24q-100 0 -185.5 24t-154.5 75t-97 146zM379 444q-8 -35 -8 -65q0 -83 57 -132q78 -67 205 -67 q125 0 227.5 66.5t130.5 197.5q7 32 7 61q0 80 -55 130q-75 68 -202 67q-125 0 -230 -64.5t-132 -193.5z" />
<glyph unicode="&#xf1;" horiz-adv-x="1243" d="M41 92q8 39 39 66.5t76 27.5h77l105 492h-78q-43 0 -61 29q-13 20 -13 44q0 11 2 23q8 37 38 63.5t73 26.5h182q43 0 69 -25q18 -18 18 -48q0 -12 -3 -25l-18 -82q23 80 114 139.5t201 59.5q186 0 265 -103q48 -62 48 -174q0 -73 -20 -166l-53 -254h74q45 0 63 -27 q13 -19 13 -44q0 -11 -3 -23q-8 -39 -37.5 -65.5t-74.5 -26.5h-179q-43 0 -68 27q-18 19 -18 47q0 11 2 24l70 334q9 45 9 82q0 164 -187 164q-94 0 -168 -61.5t-102 -176.5l-54 -254h74q43 0 62 -27q13 -19 12 -44q0 -11 -2 -23q-8 -39 -38 -65.5t-73 -26.5h-360 q-45 0 -65 27q-14 19 -13 43q0 10 2 22zM547 1049q-1 6 -1 11q0 32 29 66q117 117 218 125q8 1 15 1q56 0 116 -39q65 -42 112 -42h4q47 2 107 58q24 21 50 21q11 0 24 -4q39 -13 45 -50q1 -6 1 -11q0 -32 -30 -67q-123 -115 -217 -123q-8 -1 -16 0q-57 0 -119 38 q-68 42 -111 42h-4q-47 -2 -106 -59q-24 -21 -51 -22q-11 0 -22 4q-38 14 -44 51z" />
<glyph unicode="&#xf2;" horiz-adv-x="1077" d="M145 430q43 195 203 324t377 129q215 0 323 -129q77 -92 76 -218q0 -50 -12 -106q-41 -193 -202.5 -321.5t-377 -128.5t-321.5 128q-77 92 -77 219q0 49 11 103zM362 430q-7 -35 -7 -67q0 -74 40 -130q57 -80 174 -79.5t209 80t117 196.5q7 35 7 67q0 74 -40 130 q-57 80 -174 80t-209 -80t-117 -197zM495 1289q28 52 77 65q12 3 23 3q37 0 69 -32l127 -158q17 -23 17 -48q0 -22 -13 -47q-29 -52 -79 -64q-12 -3 -24 -3q-36 0 -65 29l-125 160q-19 24 -20 51q1 21 13 44z" />
<glyph unicode="&#xf3;" horiz-adv-x="1077" d="M145 430q43 195 203 324t377 129q215 0 323 -129q77 -92 76 -218q0 -50 -12 -106q-41 -193 -202.5 -321.5t-377 -128.5t-321.5 128q-77 92 -77 219q0 49 11 103zM362 430q-7 -35 -7 -67q0 -74 40 -130q57 -80 174 -79.5t209 80t117 196.5q7 35 7 67q0 74 -40 130 q-57 80 -174 80t-209 -80t-117 -197zM711 1089q0 33 30 72l224 248q33 39 75 44q8 1 16 1q33 0 56 -18q31 -23 34 -61v-6q0 -35 -30 -75l-223 -243q-33 -39 -77 -45l-18 -2q-32 0 -53 18q-34 28 -34 67z" />
<glyph unicode="&#xf4;" horiz-adv-x="1077" d="M145 430q43 195 203 324t377 129q215 0 323 -129q77 -92 76 -218q0 -50 -12 -106q-41 -193 -202.5 -321.5t-377 -128.5t-321.5 128q-77 92 -77 219q0 49 11 103zM362 430q-7 -35 -7 -67q0 -74 40 -130q57 -80 174 -79.5t209 80t117 196.5q7 35 7 67q0 74 -40 130 q-57 80 -174 80t-209 -80t-117 -197zM488.5 990.5q-14.5 11.5 -14.5 27.5q0 23 30 55l235 244q39 43 88 43q45 0 68 -43l133 -244q10 -20 10 -36q0 -29 -30 -47q-19 -11 -36 -11q-25 0 -46 25l-142 155l-206 -155q-32 -24 -58 -25q-17 0 -31.5 11.5z" />
<glyph unicode="&#xf5;" horiz-adv-x="1077" d="M145 430q43 195 203 324t377 129q215 0 323 -129q77 -92 76 -218q0 -50 -12 -106q-41 -193 -202.5 -321.5t-377 -128.5t-321.5 128q-77 92 -77 219q0 49 11 103zM362 430q-7 -35 -7 -67q0 -74 40 -130q57 -80 174 -79.5t209 80t117 196.5q7 35 7 67q0 74 -40 130 q-57 80 -174 80t-209 -80t-117 -197zM410 1049q-1 6 -1 11q0 32 29 66q117 117 217 125q8 1 16 1q56 0 115 -39q65 -42 113 -42h4q47 2 107 58q24 21 50 21q11 0 23 -4q39 -13 45 -50q1 -6 1 -11q0 -32 -29 -67q-123 -115 -217 -123q-8 -1 -16 0q-57 0 -119 38 q-68 42 -111 42h-4q-47 -2 -107 -59q-24 -21 -50 -22q-11 0 -22 4q-38 14 -44 51z" />
<glyph unicode="&#xf6;" horiz-adv-x="1077" d="M145 430q43 195 203 324t377 129q215 0 323 -129q77 -92 76 -218q0 -50 -12 -106q-41 -193 -202.5 -321.5t-377 -128.5t-321.5 128q-77 92 -77 219q0 49 11 103zM362 430q-7 -35 -7 -67q0 -74 40 -130q57 -80 174 -79.5t209 80t117 196.5q7 35 7 67q0 74 -40 130 q-57 80 -174 80t-209 -80t-117 -197zM496 1118q8 49 50 82t89 33q45 0 73 -34q21 -26 21 -60q0 -10 -2 -21q-12 -51 -53 -82.5t-86 -31.5q-49 0 -77 31q-19 22 -19 54q0 13 4 29zM821 1118q8 49 50 82t90 33q45 0 72 -33q21 -25 22 -60q0 -10 -2 -22q-12 -51 -52 -82.5 t-88 -31.5q-49 0 -76 31q-19 22 -20 54q0 13 4 29z" />
<glyph unicode="&#xf7;" horiz-adv-x="1153" d="M180 514q8 41 46 67.5t77 26.5h766q43 0 69 -25q19 -19 19 -48q0 -9 -2 -19q-8 -41 -46 -67.5t-81 -26.5h-766q-39 0 -64 25q-19 19 -20 48q0 9 2 19zM496 111q8 45 53 74.5t94 29.5q45 0 75 -30q23 -23 23 -56q0 -9 -2 -18q-10 -49 -53 -80t-88 -31q-49 0 -81 31 q-24 23 -24 57q1 11 3 23zM676 958q8 45 53 75t94 30q45 0 75 -30q23 -23 23 -56q0 -9 -1 -19q-10 -49 -54.5 -79.5t-89.5 -30.5q-49 0 -80 31q-23 23 -23 56q0 11 3 23z" />
<glyph unicode="&#xf8;" horiz-adv-x="1110" d="M158 430q43 195 202.5 324t376.5 129q84 0 164 -27l64 80q29 37 67 37h4q41 -2 53 -34q3 -9 3 -19q0 -25 -21 -56l-55 -69q76 -59 104 -156q15 -52 16 -108q0 -48 -12 -101q-41 -193 -202.5 -321.5t-376.5 -128.5q-84 0 -156 22l-59 -74q-29 -37 -67 -37h-4q-40 2 -51 34 q-4 10 -4 21q0 24 17 52l51 63q-127 95 -126 261q0 51 12 108zM375 430q-7 -36 -8 -68q0 -75 41 -129l366 463q-41 10 -74 11q-117 0 -208.5 -80t-116.5 -197zM514 162q31 -8 68 -8q117 0 209 79.5t116 196.5q8 36 8 69q0 70 -36 122z" />
<glyph unicode="&#xf9;" horiz-adv-x="1224" d="M174 770q8 39 39 66.5t74 27.5h182q43 0 67 -24q17 -18 17 -47q0 -10 -2 -21l-74 -342q-10 -46 -10 -83q0 -164 190 -165q92 0 166 61.5t103 178.5l55 256h-76q-43 0 -61 27q-14 20 -14 46q0 9 1 19q8 39 39 66.5t74 27.5h184q41 0 66 -24q17 -17 17 -45q0 -11 -3 -25 l-123 -584h74q43 0 62 -26q13 -18 12 -43q0 -11 -2 -23q-8 -39 -38 -66.5t-73 -27.5h-184q-41 0 -65 25q-17 18 -17 47q0 10 2 22l18 82q-25 -80 -114.5 -139.5t-200.5 -59.5q-186 0 -264 104q-48 63 -48 176q0 71 19 163l56 258h-74q-45 0 -64 27q-13 18 -12 42q-1 11 2 23 zM648 1299q28 52 78 65q12 3 23 3q37 0 68 -32l127 -157q17 -23 18 -49q0 -22 -14 -47q-29 -52 -79 -64q-12 -3 -23 -3q-36 0 -66 29l-125 160q-19 24 -19 51q0 21 12 44z" />
<glyph unicode="&#xfa;" horiz-adv-x="1224" d="M174 770q8 39 39 66.5t74 27.5h182q43 0 67 -24q17 -18 17 -47q0 -10 -2 -21l-74 -342q-10 -46 -10 -83q0 -164 190 -165q92 0 166 61.5t103 178.5l55 256h-76q-43 0 -61 27q-14 20 -14 46q0 9 1 19q8 39 39 66.5t74 27.5h184q41 0 66 -24q17 -17 17 -45q0 -11 -3 -25 l-123 -584h74q43 0 62 -26q13 -18 12 -43q0 -11 -2 -23q-8 -39 -38 -66.5t-73 -27.5h-184q-41 0 -65 25q-17 18 -17 47q0 10 2 22l18 82q-25 -80 -114.5 -139.5t-200.5 -59.5q-186 0 -264 104q-48 63 -48 176q0 71 19 163l56 258h-74q-45 0 -64 27q-13 18 -12 42q-1 11 2 23 zM866 1098q0 35 29 73l223 248q33 39 77 44q8 1 16 1q33 0 55 -18q31 -23 33 -61q0 -3 1 -6q0 -35 -30 -74l-223 -244q-33 -39 -77 -45l-18 -2q-32 0 -53 18q-33 26 -33 66z" />
<glyph unicode="&#xfb;" horiz-adv-x="1224" d="M174 770q8 39 39 66.5t74 27.5h182q43 0 67 -24q17 -18 17 -47q0 -10 -2 -21l-74 -342q-10 -46 -10 -83q0 -164 190 -165q96 0 171 64.5t102 187.5l51 244h-76q-43 0 -61 27q-14 20 -14 46q0 9 1 19q8 39 39 66.5t74 27.5h184q41 0 66 -24q17 -17 17 -45q0 -11 -3 -25 l-123 -584h74q43 0 62 -26q13 -18 12 -43q0 -11 -2 -23q-8 -39 -38 -66.5t-73 -27.5h-184q-41 0 -65 25q-17 18 -17 47q0 10 2 22l18 82q-25 -80 -114.5 -139.5t-200.5 -59.5q-186 0 -264 104q-48 63 -48 176q0 71 19 163l56 258h-74q-45 0 -64 27q-13 18 -12 42q-1 11 2 23 zM644 1000.5q-15 11.5 -15 27.5q0 23 30 55l236 244q39 43 88 43q45 0 68 -43l133 -244q10 -20 9 -36q0 -29 -30 -47q-19 -11 -36 -11q-25 0 -46 25l-141 155l-207 -155q-32 -24 -57 -25q-17 0 -32 11.5z" />
<glyph unicode="&#xfc;" horiz-adv-x="1224" d="M174 770q8 39 39 66.5t74 27.5h182q43 0 67 -24q17 -18 17 -47q0 -10 -2 -21l-74 -342q-10 -46 -10 -83q0 -164 190 -165q92 0 166 61.5t103 178.5l55 256h-76q-43 0 -61 27q-14 20 -14 46q0 9 1 19q8 39 39 66.5t74 27.5h184q41 0 66 -24q17 -17 17 -45q0 -11 -3 -25 l-123 -584h74q43 0 62 -26q13 -18 12 -43q0 -11 -2 -23q-8 -39 -38 -66.5t-73 -27.5h-184q-41 0 -65 25q-17 18 -17 47q0 10 2 22l18 82q-25 -80 -114.5 -139.5t-200.5 -59.5q-186 0 -264 104q-48 63 -48 176q0 71 19 163l56 258h-74q-45 0 -64 27q-13 18 -12 42q-1 11 2 23 zM649 1128q8 47 51 81t91 34q45 0 71 -34q20 -26 21 -59q0 -10 -2 -22q-12 -51 -53.5 -82.5t-86.5 -31.5q-49 0 -76 32q-19 22 -20 53q0 13 4 29zM975 1128q8 47 51 81t90 34q45 0 72 -33q20 -25 20 -59q0 -11 -2 -23q-12 -51 -52 -82.5t-87 -31.5q-49 0 -77 32 q-19 22 -19 53q0 13 4 29z" />
<glyph unicode="&#xfd;" horiz-adv-x="1165" d="M113 -209q-1 8 -1 15q0 71 72 112q40 22 74 22q30 0 55 -18q29 -20 33 -61q-6 -39 -24 -58q45 -61 198 -61q113 0 200 59.5t116 194.5l36 172q-20 -72 -112 -134.5t-201 -62.5q-188 0 -268 99q-49 61 -50 174q0 70 19 159l59 275h-73q-45 0 -64 27q-13 18 -12 42 q0 11 2 23q8 39 39 66.5t74 27.5h184q43 0 66 -24q17 -18 16 -46q0 -10 -2 -22l-78 -364q-7 -38 -7 -71q0 -163 191 -163q94 0 167 61.5t102 176.5l57 266h-76q-43 0 -61 27q-14 20 -14 46q0 9 1 19q8 39 39 66.5t74 27.5h184q41 0 66 -24q17 -17 17 -45q0 -11 -3 -25 l-157 -741q-49 -233 -207 -340t-359 -107q-72 0 -134 9.5t-119.5 32t-89 65.5t-29.5 102zM783 1089q0 33 30 72l223 248q33 39 76 44q8 1 16 1q33 0 56 -18q31 -23 34 -61v-6q0 -35 -30 -75l-223 -243q-33 -39 -77 -45l-18 -2q-32 0 -53 18q-34 28 -34 67z" />
<glyph unicode="&#xfe;" horiz-adv-x="1095" d="M14 -334l367 1727q10 45 46 69.5t79 24.5t68 -25q18 -18 19 -45q0 -11 -3 -24l-139 -656q145 145 344 146q197 0 287 -132q64 -93 64 -213q0 -51 -11 -108q-39 -188 -186.5 -319t-346.5 -131t-283 145l-96 -459q-10 -45 -47 -69.5t-78 -24.5q-43 0 -68 25q-18 18 -19 45 q0 11 3 24zM383 418q-5 -29 -5 -56q0 -81 47 -135q62 -72 173 -71.5t203 78t119 196.5q8 37 8 70q0 75 -42 128q-60 77 -171 77t-204 -73t-124 -190z" />
<glyph unicode="&#xff;" horiz-adv-x="1165" d="M113 -209q-1 8 -1 15q0 71 72 112q40 22 74 22q30 0 55 -18q29 -20 33 -61q-6 -39 -24 -58q45 -61 198 -61q113 0 200 59.5t116 194.5l36 172q-20 -72 -112 -134.5t-201 -62.5q-188 0 -268 99q-49 61 -50 174q0 70 19 159l59 275h-73q-45 0 -64 27q-13 18 -12 42 q0 11 2 23q8 39 39 66.5t74 27.5h184q43 0 66 -24q17 -18 16 -46q0 -10 -2 -22l-78 -364q-7 -38 -7 -71q0 -163 191 -163q94 0 167 61.5t102 176.5l57 266h-76q-43 0 -61 27q-14 20 -14 46q0 9 1 19q8 39 39 66.5t74 27.5h184q41 0 66 -24q17 -17 17 -45q0 -11 -3 -25 l-157 -741q-49 -233 -207 -340t-359 -107q-72 0 -134 9.5t-119.5 32t-89 65.5t-29.5 102zM567 1118q8 49 50 82t90 33q45 0 72 -34q21 -26 22 -60q0 -10 -2 -21q-12 -51 -53 -82.5t-87 -31.5q-49 0 -76 31q-19 22 -19 54q-1 13 3 29zM893 1118q8 49 50 82t89 33q45 0 73 -33 q21 -25 21 -60q0 -10 -2 -22q-12 -51 -52 -82.5t-87 -31.5q-49 0 -77 31q-19 22 -19 54q0 13 4 29z" />
<glyph unicode="&#x152;" horiz-adv-x="3088" d="M211 711q66 307 332 520t600 213q336 0 513 -213q129 -155 129 -361q0 -76 -18 -159q-66 -307 -333 -519t-603 -212q-334 0 -509 211q-128 154 -129 360q0 77 18 160zM449 711q-13 -62 -14 -118q0 -146 88 -257q122 -154 351.5 -154t418 155t235.5 374q13 61 13 117 q0 147 -89 258q-123 155 -352.5 155t-416.5 -154.5t-234 -375.5zM1731 104q8 39 40.5 69t79.5 30h111l217 1028h-108q-47 0 -67 32q-14 22 -14 49q0 11 3 23q8 39 40.5 69t80.5 30h1073q45 0 63 -31q13 -21 13 -48q0 -12 -3 -24l-49 -227q-10 -47 -46 -73q-33 -24 -71 -24 q-3 0 -6 1q-41 0 -66 24q-18 18 -18 47q0 12 2 25l27 127h-637l-84 -400h539q45 0 64 -30q14 -22 14 -49q0 -11 -2 -23q-8 -41 -40 -71.5t-79 -30.5h-539l-90 -424h666l82 170q36 74 110 74q2 0 4 -1q66 -2 82 -57q3 -9 3 -20q0 -23 -13 -50l-121 -247q-35 -72 -108 -72 h-1076q-47 0 -66 31q-14 22 -14 49q1 11 3 24z" />
<glyph unicode="&#x153;" horiz-adv-x="2066" d="M145 430q43 195 203 324t377 129q215 0 323 -129q77 -92 76 -218q0 -50 -12 -106q-41 -193 -202.5 -321.5t-377 -128.5t-321.5 128q-77 92 -77 219q0 49 11 103zM362 430q-7 -35 -7 -67q0 -74 40 -130q57 -80 174 -79.5t209 80t117 196.5q7 35 7 67q0 74 -40 130 q-57 80 -174 80t-209 -80t-117 -197zM1223 426q43 203 206.5 330t364.5 127q188 0 283 -89q73 -69 73 -157q0 -25 -6 -51q-27 -123 -143.5 -196t-284.5 -73q-156 0 -282 64q-4 -94 66.5 -157.5t193.5 -63.5q59 0 106 9t89 25.5t46 18.5q16 3 30 3q30 0 47 -15q22 -19 22 -51 v-11q-6 -53 -64 -88q-55 -33 -153 -55q-98 -20 -195 -21q-215 0 -329 125q-82 91 -82 222q0 49 12 104zM1466 502q90 -45 185 -56q28 -3 53 -3q75 0 135 27q80 36 100 95q6 16 6 31q0 36 -35 66q-50 41 -155 40q-86 0 -167 -56t-122 -144z" />
<glyph unicode="&#x178;" horiz-adv-x="1648" d="M264 1335q8 41 40 70t79 29h410q45 0 64 -31q14 -22 14 -48q0 -11 -3 -24q-10 -41 -41.5 -70.5t-76.5 -29.5h-101l-8 -45q-17 -79 -17 -145q0 -125 61 -206q93 -124 287.5 -124t341 123.5t195.5 351.5l9 45h-97q-47 0 -65 31q-13 21 -13 48q0 12 3 25q8 41 39.5 70 t78.5 29h410q45 0 64 -31q14 -22 14 -48q0 -11 -2 -24q-10 -41 -42 -70.5t-77 -29.5h-98l-9 -43q-59 -281 -239 -462t-445 -212l-65 -311h96q45 0 64 -31q13 -21 12 -47q0 -12 -2 -25q-8 -41 -40 -70.5t-77 -29.5h-407q-47 0 -68 31q-15 22 -15 50q0 11 3 23q8 39 41.5 69 t81.5 30h94l65 311q-254 31 -355 212q-64 114 -64 268q0 90 22 194l8 43h-94q-47 0 -66 31q-13 21 -12 48q-1 12 2 25zM903 1681q8 49 50 82t89 33q45 0 73 -34q21 -26 21 -60q0 -10 -1 -21q-12 -51 -53.5 -82.5t-86.5 -31.5q-49 0 -76 31q-19 22 -20 54q0 13 4 29z M1229 1681q8 49 50 82t89 33q45 0 73 -33q21 -25 21 -60q0 -10 -2 -22q-12 -51 -52 -82.5t-87 -31.5q-49 0 -77 31q-19 22 -19 54q0 13 4 29z" />
<glyph unicode="&#x2c6;" horiz-adv-x="690" d="M285.5 951.5q-14.5 11.5 -14.5 27.5q0 23 30 55l236 244q39 43 88 43q47 0 67 -43l133 -244q10 -20 10 -36q0 -29 -30 -47q-19 -11 -36 -11q-25 0 -46 25l-141 155l-207 -155q-32 -24 -58 -25q-17 0 -31.5 11.5z" />
<glyph unicode="&#x2dc;" horiz-adv-x="813" d="M285 1049q-1 6 -1 11q0 32 29 66q117 117 217 125q8 1 16 1q56 0 116 -39q65 -42 112 -42h4q47 2 107 58q24 21 50 21q11 0 23 -4q39 -13 46 -50q1 -6 0 -11q0 -32 -29 -67q-123 -115 -217 -123q-8 -1 -16 0q-57 0 -119 38q-68 42 -111 42h-4q-47 -2 -107 -59 q-24 -21 -50 -22q-11 0 -22 4q-38 14 -44 51z" />
<glyph unicode="&#x2013;" horiz-adv-x="1150" d="M199 506q8 39 39.5 68.5t76.5 29.5h772q47 0 68 -29q15 -20 15 -47q0 -11 -3 -22q-8 -39 -40.5 -67.5t-79.5 -28.5h-773q-45 0 -64 28q-14 20 -14 46q1 10 3 22z" />
<glyph unicode="&#x2014;" horiz-adv-x="2009" d="M225 473q-1 8 -1 16q0 53 48 91q31 25 72 24h1571q72 0 80 -63q2 -10 1 -19q0 -51 -48 -88q-33 -25 -74 -24h-1571q-70 0 -78 63z" />
<glyph unicode="&#x2018;" horiz-adv-x="411" d="M354 1391q-1 8 -1 15q0 34 24 63q29 36 74 49q19 5 36 5q22 0 40 -9q34 -15 38 -60l41 -283q1 -6 1 -11q0 -38 -24 -67q-28 -34 -71 -49q-19 -5 -37 -5q-23 0 -43 10q-35 16 -39 59z" />
<glyph unicode="&#x2019;" horiz-adv-x="411" d="M292 1091q-5 12 -5 26q0 24 14 54l160 283q25 45 65 60q23 9 45 9q17 0 33 -5q37 -12 51 -47q6 -13 6 -28q0 -24 -14 -52l-162 -283q-23 -43 -63 -59q-23 -9 -46 -10q-17 0 -34 5q-37 15 -50 47z" />
<glyph unicode="&#x201a;" horiz-adv-x="411" d="M14 -232q-5 12 -4 26q0 24 13 54l159 283q25 45 65 60q22 9 44 9q17 0 35 -5q37 -12 51 -47q6 -13 5 -28q0 -24 -13 -52l-162 -283q-23 -43 -64 -59q-23 -9 -46 -10q-17 0 -34 5q-37 15 -49 47z" />
<glyph unicode="&#x201c;" horiz-adv-x="686" d="M354 1391q-1 8 -1 15q0 34 24 63q29 36 74 49q19 5 36 5q22 0 40 -9q34 -15 38 -60l41 -283q1 -6 1 -11q0 -38 -24 -67q-28 -34 -71 -49q-19 -5 -37 -5q-23 0 -43 10q-35 16 -39 59zM629 1391q-1 8 -1 15q0 34 23 63q29 36 74 49q19 5 36 5q22 0 41 -9q34 -15 38 -60 l41 -283q1 -6 0 -11q0 -38 -24 -67q-28 -34 -71 -49q-19 -5 -36 -5q-23 0 -43 10q-35 16 -39 59z" />
<glyph unicode="&#x201d;" horiz-adv-x="686" d="M294 1091q-5 12 -5 26q0 24 14 54l160 283q25 45 65 60q23 9 45 9q17 0 33 -5q37 -12 51 -47q6 -13 6 -28q0 -24 -14 -52l-162 -283q-23 -43 -63 -59q-23 -9 -46 -10q-17 0 -34 5q-37 15 -50 47zM568 1091q-5 12 -5 26q0 24 15 54l159 283q25 45 66 60q23 9 44 9 q17 0 34 -5q37 -12 51 -47q6 -13 5 -28q0 -24 -13 -52l-162 -283q-23 -43 -64 -59q-23 -9 -46 -10q-17 0 -34 5q-37 15 -50 47z" />
<glyph unicode="&#x201e;" horiz-adv-x="686" d="M14 -232q-5 12 -4 26q0 24 13 54l159 283q25 45 65 60q22 9 44 9q17 0 35 -5q37 -12 51 -47q6 -13 5 -28q0 -24 -13 -52l-162 -283q-23 -43 -64 -59q-23 -9 -46 -10q-17 0 -34 5q-37 15 -49 47zM286 -232q-5 12 -5 26q0 24 14 54l160 283q25 45 64 60q22 9 44 9 q17 0 35 -5q37 -12 51 -47q6 -13 6 -28q0 -24 -14 -52l-162 -283q-23 -43 -63 -59q-23 -9 -46 -10q-17 0 -34 5q-37 15 -50 47z" />
<glyph unicode="&#x2022;" horiz-adv-x="1107" d="M285 428q31 145 155.5 241.5t274 96.5t233.5 -96q61 -70 62 -168q0 -35 -9 -74q-31 -145 -155.5 -241.5t-274 -96.5t-233.5 96q-61 70 -62 168q1 35 9 74z" />
<glyph unicode="&#x2026;" horiz-adv-x="731" d="M33 106q8 47 49 79t86 32q43 0 70 -32q20 -24 20 -57q0 -10 -2 -22q-12 -51 -51 -80.5t-84 -29.5q-47 0 -74 30q-18 20 -18 50q0 14 4 30zM276 106q8 47 49.5 79t86.5 32q43 0 69 -32q20 -24 21 -57q0 -10 -2 -22q-12 -51 -51 -80.5t-84 -29.5q-47 0 -74 30 q-18 20 -18 50q-1 14 3 30zM520 106q8 47 49 79t86 32q43 0 70 -32q20 -24 20 -57q0 -10 -2 -22q-12 -49 -52 -79.5t-83 -30.5q-47 0 -73 30q-18 20 -19 50q0 14 4 30z" />
<glyph unicode="&#x2039;" horiz-adv-x="610" d="M116 441q9 46 60 85l340 256q35 27 70 28q17 0 34 -7q51 -21 51 -72q0 -48 -50 -92l-256 -197l172 -196q20 -27 19 -57.5t-22.5 -56.5t-49.5 -43q-25 -16 -52 -15h-7q-32 2 -54 26l-232 256q-26 30 -25 65q0 10 2 20z" />
<glyph unicode="&#x203a;" horiz-adv-x="659" d="M147 132q-5 12 -4 26q0 15 5 31q11 32 45 57l253 196l-170 197q-21 23 -21 51q0 21 12 44q28 54 80 70q15 5 30 4q35 0 65 -26l230 -256q27 -30 27 -63q0 -10 -3 -21q-10 -45 -61 -86l-338 -256q-33 -25 -66 -26h-6q-28 0 -47 15q-21 17 -31 43z" />
<glyph unicode="&#x2122;" horiz-adv-x="1380" d="M289 1354q12 55 65 59q109 20 215 21q109 0 203 -21q45 -7 45 -42q0 -8 -2 -17q-6 -27 -30.5 -47.5t-51.5 -18.5q-61 12 -127 19l-80 -373q-4 -25 -28.5 -43.5t-49 -18.5t-41 18.5t-12.5 43.5l80 373q-68 -6 -133 -19q-27 -2 -42 19q-12 16 -12 36q0 5 1 11zM721 936 q-2 -9 -2 -16q0 -19 11 -31q15 -16 42 -16.5t51.5 16t30.5 47.5l53 250q27 127 129 127q79 0 80 -80q0 -21 -6 -47l-53 -250q-8 -31 9 -47.5t44 -16.5q25 0 48.5 16.5t31.5 47.5l53 250q27 127 131 127q81 0 81 -80q0 -21 -5 -47l-53 -250q-8 -31 8 -47.5t43 -16.5 t51.5 16.5t30.5 47.5l53 250q10 51 10 90q0 70 -32 104q-51 53 -158 54q-133 0 -197 -111q-18 111 -149 111q-106 0 -180 -52.5t-103 -195.5z" />
<glyph unicode="&#xe000;" horiz-adv-x="865" d="M0 865h865v-865h-865v865z" />
<glyph unicode="&#xfb01;" horiz-adv-x="1280" d="M45 92q8 39 39 66.5t76 27.5h76l104 492h-70q-45 0 -64 28q-14 19 -14 44q0 11 3 22q8 39 37.5 65.5t76.5 26.5h70l51 240q72 340 397 340q41 0 82 -9.5t85 -31t66 -68.5q13 -28 13 -62q0 -23 -6 -48q-12 -53 -56 -85t-93.5 -32t-78.5 31q-21 22 -21 55q0 14 3 31 q6 33 29 51q-25 10 -53 10q-119 0 -158 -184l-51 -238h178q45 0 65 -27q15 -20 15 -45q0 -10 -2 -20q-8 -39 -40 -66.5t-77 -27.5h-178l-105 -492h115q45 0 64 -27q13 -19 12 -44q0 -11 -2 -23q-8 -39 -38 -65.5t-75 -26.5h-399q-45 0 -65 27q-14 19 -13 43q0 10 2 22z M737 92q8 39 39 66.5t76 27.5h76l104 492h-76q-45 0 -63 29q-13 20 -13 44q0 11 3 23q8 37 37.5 63.5t74.5 26.5h179q43 0 69 -25q19 -18 19 -49q0 -11 -2 -24l-123 -580h75q43 0 63 -27q14 -19 14 -45q0 -11 -3 -22q-8 -39 -38.5 -65.5t-73.5 -26.5h-361q-45 0 -64 27 q-14 19 -14 43q0 10 2 22zM1100 1087q12 51 55 85t92 34q47 0 77 -34q21 -24 21 -56q0 -13 -4 -29q-10 -53 -53 -85.5t-92 -32.5t-78 32q-21 24 -21 60q0 12 3 26z" />
<glyph unicode="&#xfb02;" horiz-adv-x="1282" d="M45 92q8 39 39 66.5t76 27.5h76l104 492h-70q-45 0 -64 28q-14 19 -14 44q0 11 3 22q8 39 37.5 65.5t76.5 26.5h70l51 240q72 340 397 340q41 0 82 -9.5t85 -31t66 -68.5q13 -28 13 -62q0 -23 -6 -48q-12 -53 -56 -85t-93.5 -32t-78.5 31q-21 22 -21 55q0 14 3 31 q6 33 29 51q-25 10 -53 10q-119 0 -158 -184l-51 -238h178q45 0 65 -27q15 -20 15 -45q0 -10 -2 -20q-8 -39 -40 -66.5t-77 -27.5h-178l-105 -492h115q45 0 64 -27q13 -19 12 -44q0 -11 -2 -23q-8 -39 -38 -65.5t-75 -26.5h-399q-45 0 -65 27q-14 19 -13 43q0 10 2 22z M739 92q8 39 40 66.5t75 27.5h72l235 1106h-74q-45 0 -63 29q-13 20 -13 45q0 11 3 23q6 37 36.5 63.5t75.5 26.5h185q41 0 64 -25q16 -17 17 -44q0 -12 -3 -26l-254 -1198h79q43 0 63 -27q14 -19 14 -45q0 -11 -3 -22q-8 -39 -38.5 -65.5t-73.5 -26.5h-361q-43 0 -63 28 q-15 20 -15 44q0 9 2 20z" />
<glyph unicode="&#xfb03;" horiz-adv-x="1972" d="M45 92q8 39 39 66.5t76 27.5h76l104 492h-70q-45 0 -64 28q-14 19 -14 44q0 11 3 22q8 39 37.5 65.5t76.5 26.5h70l51 240q72 340 397 340q41 0 82 -9.5t85 -31t66 -68.5q13 -28 13 -62q0 -23 -6 -48q-12 -53 -56 -85t-93.5 -32t-78.5 31q-21 22 -21 55q0 14 3 31 q6 33 29 51q-25 10 -53 10q-119 0 -158 -184l-51 -238h178q45 0 65 -27q15 -20 15 -45q0 -10 -2 -20q-8 -39 -40 -66.5t-77 -27.5h-178l-105 -492h115q45 0 64 -27q13 -19 12 -44q0 -11 -2 -23q-8 -39 -38 -65.5t-75 -26.5h-399q-45 0 -65 27q-14 19 -13 43q0 10 2 22z M737 92q8 39 39 66.5t76 27.5h76l104 492h-69q-45 0 -65 28q-14 19 -14 44q0 11 3 22q8 39 37.5 65.5t76.5 26.5h70l51 240q72 340 398 340q41 0 81.5 -9.5t85 -31t65.5 -68.5q13 -28 13 -62q0 -23 -6 -48q-12 -53 -56 -85t-93 -32t-79 31q-21 22 -21 55q0 14 3 31 q6 33 29 51q-25 10 -53 10q-119 0 -158 -184l-51 -238h178q45 0 66 -27q15 -20 14 -45q0 -10 -2 -20q-8 -39 -40 -66.5t-77 -27.5h-178l-104 -492h114q45 0 64 -27q13 -19 13 -44q0 -11 -3 -23q-8 -39 -38 -65.5t-75 -26.5h-399q-45 0 -64 27q-14 19 -14 43q0 10 2 22z M1430 92q8 39 38.5 66.5t75.5 27.5h76l104 492h-75q-45 0 -64 29q-13 20 -13 44q0 11 3 23q8 37 37.5 63.5t75.5 26.5h178q43 0 69 -25q19 -18 20 -49q0 -11 -3 -24l-123 -580h76q43 0 62 -27q14 -19 14 -45q0 -11 -3 -22q-8 -39 -38.5 -65.5t-73.5 -26.5h-361q-45 0 -64 27 q-14 19 -14 43q1 10 3 22zM1792 1087q12 51 55 85t92 34q47 0 77 -34q21 -24 21 -56q0 -13 -3 -29q-10 -53 -53.5 -85.5t-92.5 -32.5t-78 32q-21 24 -21 60q0 12 3 26z" />
<glyph unicode="&#xfb04;" horiz-adv-x="1974" d="M45 92q8 39 39 66.5t76 27.5h76l104 492h-70q-45 0 -64 28q-14 19 -14 44q0 11 3 22q8 39 37.5 65.5t76.5 26.5h70l51 240q72 340 397 340q41 0 82 -9.5t85 -31t66 -68.5q13 -28 13 -62q0 -23 -6 -48q-12 -53 -56 -85t-93.5 -32t-78.5 31q-21 22 -21 55q0 14 3 31 q6 33 29 51q-25 10 -53 10q-119 0 -158 -184l-51 -238h178q45 0 65 -27q15 -20 15 -45q0 -10 -2 -20q-8 -39 -40 -66.5t-77 -27.5h-178l-105 -492h115q45 0 64 -27q13 -19 12 -44q0 -11 -2 -23q-8 -39 -38 -65.5t-75 -26.5h-399q-45 0 -65 27q-14 19 -13 43q0 10 2 22z M737 92q8 39 39 66.5t76 27.5h76l104 492h-69q-45 0 -65 28q-14 19 -14 44q0 11 3 22q8 39 37.5 65.5t76.5 26.5h70l51 240q72 340 398 340q41 0 81.5 -9.5t85 -31t65.5 -68.5q13 -28 13 -62q0 -23 -6 -48q-12 -53 -56 -85t-93 -32t-79 31q-21 22 -21 55q0 14 3 31 q6 33 29 51q-25 10 -53 10q-119 0 -158 -184l-51 -238h178q45 0 66 -27q15 -20 14 -45q0 -10 -2 -20q-8 -39 -40 -66.5t-77 -27.5h-178l-104 -492h114q45 0 64 -27q13 -19 13 -44q0 -11 -3 -23q-8 -39 -38 -65.5t-75 -26.5h-399q-45 0 -64 27q-14 19 -14 43q0 10 2 22z M1432 92q8 39 39.5 66.5t74.5 27.5h72l235 1106h-73q-45 0 -64 29q-13 20 -13 45q0 11 3 23q6 37 37 63.5t76 26.5h184q41 0 64 -25q16 -17 17 -44q0 -12 -3 -26l-254 -1198h80q43 0 62 -27q14 -19 14 -45q0 -11 -3 -22q-8 -39 -38.5 -65.5t-73.5 -26.5h-361q-43 0 -63 28 q-15 20 -15 44q1 9 3 20z" />
</font>
</defs>
</svg>
